<svg viewBox="0 0 96 32" xmlns="http://www.w3.org/2000/svg"><path d="M71.328 21.365c0 3.928-3.168 6.228-4.992 6.228-.864 0-1.248-.096-1.824-.192L63.648 32h-2.4c-.672 0-.576-.383-.48-.862l2.208-11.21-.192-.096a7.533 7.533 0 0 0-1.536-.191l.384-1.821c1.344-.191 2.688-.191 4.032-.191l-.48 1.724h.096c1.056-1.437 2.112-1.82 3.168-1.82.864 0 2.88.671 2.88 3.832Zm-10.656-8.048a17.211 17.211 0 0 0-12.864-5.748c-1.824 0-3.648.287-5.28.862l-.096-.096a19.824 19.824 0 0 0-14.112-5.94c-6.624 0-12.576 3.258-16.128 8.336h-.096c-5.952 0-10.848 4.79-10.848 10.826 0 1.724.384 3.353 1.152 4.79l.864 1.437c.096.096.096.192.192.192a11.331 11.331 0 0 0 3.648 3.066c.096.096.288.096.384.192a6.73 6.73 0 0 0 1.248.479v-.192c-3.36-1.629-5.568-5.078-5.568-9.006 0-5.557 4.512-10.06 10.08-10.06h.576c.384-.575.768-1.054 1.152-1.533 3.168-3.832 8.064-6.323 13.44-6.323 4.512 0 8.64 1.724 11.712 4.503l.096.096c.576.574 1.152 1.149 1.728 1.82 2.304-1.15 4.8-1.82 7.584-1.82 4.608 0 8.832 1.916 11.808 4.886l.192-.192c-.48-.096-.672-.383-.864-.575ZM93.6 22.994c0-.383.288-.671.768-.671.288 0 .864.096 1.248.479L96 21.557c-.576-.575-1.44-.767-2.112-.767-1.632 0-2.496.767-2.496 2.012 0 1.342 1.92 1.917 1.92 2.779 0 .287-.288.479-.768.479-.576 0-1.152-.192-1.536-.479l-.288 1.437c.384.287 1.44.575 2.208.575 1.728 0 2.688-.767 2.688-1.916 0-1.15-2.016-2.012-2.016-2.683Zm-75.36-2.97c0 3.066-3.264 3.832-5.952 3.545v.671c0 .958.864 1.245 2.112 1.245.864 0 1.824-.192 2.592-.479l.096 2.012c-.768.287-2.112.575-3.84.575-1.632 0-4.128-.862-4.128-3.641 0-4.79 3.552-6.323 5.76-6.323 1.824-.096 3.36.766 3.36 2.395Zm64.032 4.886c-.768 0-1.44.575-1.44 1.437 0 .671.48 1.246 1.248 1.246s1.44-.575 1.44-1.437c.096-.671-.48-1.246-1.248-1.246Zm8.256-2.395c0 2.108-2.208 2.587-4.032 2.395v.288c0 .479.192.958 1.44.958.672 0 1.248-.192 1.824-.288v1.342c-.48.191-1.344.383-2.496.383-1.248 0-2.976-.575-2.976-2.491 0-3.258 2.496-4.312 3.936-4.312 1.248.096 2.304.671 2.304 1.725Zm-66.72-9.198c-1.44-.095-3.552 0-4.896.192l-.384 1.82a6.68 6.68 0 0 1 1.536.192l.192.096-1.632 8.431c-.096.671-.192 1.245-.192 1.724 0 .479.192 1.821 2.016 1.821.96 0 1.728-.288 2.304-.575l.288-1.533h-1.632l2.4-12.168Zm21.504 6.707c0 3.066-3.264 3.832-5.952 3.545v.671c0 .958.864 1.245 2.112 1.245.864 0 1.824-.192 2.592-.479l.096 2.012c-.768.287-2.112.575-3.84.575-1.632 0-4.128-.862-4.128-3.641 0-4.79 3.552-6.323 5.76-6.323 1.92-.096 3.36.766 3.36 2.395Zm-9.792-2.299h-2.976L31.2 24.814c-.096.288-.096.767-.096 1.054 0 .767.384 1.629 2.016 1.629 1.056 0 1.92-.192 2.304-.575l.288-1.629H34.08l1.44-7.568Zm23.616 7.664 1.056-5.557c.288-1.628-.96-2.299-1.824-2.299-1.344 0-2.4.671-3.264 1.629-.192-1.054-.864-1.629-1.92-1.629-.96 0-2.016.479-3.264 2.012l.288-1.82c-1.44-.096-2.688 0-4.032.191l-.384 1.821c.576 0 1.056.095 1.44.191h.192l-1.344 6.898c-.096.384.096.575.48.575h2.4l1.152-5.94c.288-.575 1.056-1.15 1.44-1.15.48 0 .576.384.48.767l-1.152 5.653c-.096.287-.096.574.384.574h2.496l1.152-5.844c.384-.671 1.152-1.15 1.632-1.15.384 0 .48.384.384.767l-.864 4.503c-.192 1.054.192 1.916 1.824 1.916.864 0 1.824-.192 2.496-.575l.288-1.629-1.536.096Zm22.368-3.928c0 3.066-1.92 6.036-5.376 6.036-2.4 0-4.224-1.054-4.224-3.737 0-2.778 2.016-6.227 5.568-6.227 2.112 0 4.032 1.15 4.032 3.928Zm-51.84 3.737-.288 1.82c-.672.383-1.632.479-2.688.479-2.208 0-2.592-1.15-2.592-2.204 0-.287 0-.67.096-.958l.864-4.503h-1.632l.384-2.107h1.632l.864-2.491h2.688l-.48 2.491H31.2l-.384 2.107h-2.688l-.768 4.024c0 .192-.096.384-.096.575 0 .383.192.767.864.767.384.095 1.248 0 1.536 0Zm38.592-3.641c0-1.054-.288-1.629-.864-1.629-1.056 0-1.632 1.15-2.016 3.162l-.384 2.203c.192 0 .48.096.672.096 1.632 0 2.592-2.491 2.592-3.832Zm10.08 0c0-.767-.288-1.533-1.056-1.533-1.44 0-2.112 2.587-2.112 3.832 0 .671.288 1.342 1.056 1.342 1.248 0 2.112-2.204 2.112-3.641Zm10.272 1.15c0-.384-.288-.479-.576-.479-.768 0-1.344.766-1.44 1.437.576 0 2.016-.096 2.016-.958ZM15.36 20.216c0-.575-.48-.671-.864-.671-1.152 0-1.92 1.15-2.016 2.108.768.096 2.88-.096 2.88-1.437Zm27.168 0c0-.575-.48-.671-.864-.671-1.152 0-1.824 1.15-2.016 2.108.768.096 2.88-.096 2.88-1.437Zm-7.872-6.611c-.864 0-1.728.766-1.728 1.724 0 .767.576 1.533 1.536 1.533.864 0 1.728-.766 1.728-1.724 0-.863-.672-1.533-1.536-1.533Z" fill="#00adee"/><path d="M57.984 10.156c-2.88-2.683-6.816-4.312-11.136-4.312h-.96c-.864 0-1.728.192-2.496.288C39.552 2.299 34.176 0 28.32 0 21.6 0 15.552 3.066 11.616 7.952l-.288.288C4.992 8.623 0 13.796 0 20.12c0 4.982 2.976 9.197 7.296 11.018-1.632-.767-2.976-1.916-4.032-3.258-.096-.096-.096-.191-.192-.191l-.864-1.438c-.672-1.437-1.152-3.065-1.152-4.79 0-5.94 4.8-10.826 10.848-10.826H12c3.552-5.078 9.504-8.336 16.128-8.336 5.568 0 10.56 2.3 14.112 5.941l.096.095c1.632-.575 3.456-.862 5.28-.862 5.088 0 9.696 2.204 12.864 5.749-.576-1.054-1.536-2.108-2.496-3.066Z" fill="#ffac27"/></svg>