<svg xmlns="http://www.w3.org/2000/svg" viewBox="0 0 1920 1080"><path fill="#f2f2f2" d="m593 1050-24 10c-6 2-11 4-16 8l-8 4h-3l-1 2 1 2c7-1 14 1 20-2l34-16 16-5 7-2c2-1 3-2 5 0h3l54-12 15-5 24-5 5-2h13l7-1-5 10-12 23-8 13c-1 2-1 4 2 4h9c2 0 3-2 4-3l10-20 15-29 1-3c2-3 5-4 7-2l23 11c3 2 3 2 2 6-4 9-5 18-6 28-1 2-2 5-1 8 0 2 0 4 3 4s5-1 6-3l3-15c0-5 2-10 4-15l7-19c0-2 1-4 4-5 2 0 3-3 4-5 2-3 2-3 6-2l57 18 55 18 10 3c2 1 2 2 2 4l-4 16c0 4 1 5 5 5h16c4 0 5-1 6-4l4-22 3-24 3-19 2-15c1-6 1-13 3-19l2-16c1-5 1-11 3-16 1-3 0-3 4-1 13 4 27 9 40 16l36 16 69 29 37 16 44 19 45 20 10 3c9 2 18 6 26 10l21 7c2 1 4 1 4 4H77c0-2 1-2 2-2 6-1 9-4 13-7l32-25c2-1 4-3 6-2s2 0 3-1l37-29c6-5 12-9 16-14l4-6c2-9 2-19 1-29l-1-13-2-20c0-7 1-14-1-21-3-7-2-13-2-20-1-4-2-8-1-12v-36c-1-9 0-9 5-15l5-6c3-1 5 2 7 3l46 15 62 21 6 2c12-2 24 2 36 6l45 12c4 1 4 2 3 5 0 3 0 4 2 5 2 0 2 2 2 3-3 12-5 24-9 35l-3 10c-1 1-1 2-3 1l-37-6-39-7-19-3c-3-1-6-2-9 1-2 3-2 4 0 7l5 2 31 5 19 3 18 3 23 3c3 0 5 2 7 3l1 5-3 13-3 21a1087 1087 0 0 0-10 51l-5 28c-1 4-1 6 2 7 4 1 8-1 8-5l7-29 8-42c1-4 1-4 5-5l22-2 17-1 10-1c3-1 4 0 6 4 1 3 1 6 5 5l1 2 3 6 7 20c1 3 1 5-1 7v4l12 33c1 4 8 5 11 3v-3l-8-24c-2-6-5-11-5-16l-2-2-13-39c-3-9-2-8 6-8l15-3 27-12c3-1 4-3 3-5-1-3 0-3 2-4l35-12h3l4 1c3-1 3-2 2-4-1-5-1-5 4-7l37-13c2 0 4-1 5 1l3 1 10-4c3-2 4-2 6 1a6505 6505 0 0 1 21 37l12 32v3c-2 3-1 5 0 7l5 24v3c1 2 0 3-3 4l-39 9c-9 2-18 4-27 8Zm1154 30 3-12 19-59 16-50 11-29c2-6 6-11 7-17v-3c-1-4 1-7 2-10l12-37 2-4c3-2 3-6 4-9l13-39 7-24c1-4 2-4 5-2l14 6 46 21 12 5v165l-2 1 2 1v3l-2 1c1 3-2 6-2 10l-2 13-3 17-7 37-2 15h-155Zm-313 0 19-65 19-66 13-45 15-52 13-42 12-42v-3c-1-3 1-6 4-7 2 0 3-2 3-4 0-3 2-4 4-5l12-6h4c2 2 3 1 4 1l15-9c2-1 4-2 3-5-1-1 1-2 2-3 6-2 11-5 17-6l3-1 24-14 21-13c2-2 4-2 6-1l41 21c9 4 8 2 8 11l-4 34-4 27-2 4c-1-3 1-6 1-8l5-32c1-3 0-4-2-3-3 0-5 2-5 5l-4 21-4 21a150 150 0 0 0-2 36c3 8 0 16-1 24l-6 33-6 35-5 27-4 25a6429 6429 0 0 0-15 84l-3 16v7h-201Zm214 0 3-18 4-27 4-21 6-36 6-36 4-23-1-4c-2-2-2-4 0-5 3-1 3-3 3-5l7-39 7-40 8-42 4-24 2-13v-3c4-4 2-10 4-16v-3c0-1 1-2 3-1l9 5c8 5 16 7 24 11l29 13 38 16 18 8c2 0 2 1 1 3-1 4-2 8-1 13 1 2 0 4-1 7l-20 56-21 65c-2 8-5 16-6 25-1 2-1 4-4 5l-2 4-24 78-13 42-1 5h-90Zm-289 0c0-2-1-2-3-3-14-4-28-12-42-17l-28-12-9-2-21-9a2628 2628 0 0 1-66-28l-17-8-3-4 2-9v-16c-1-28 0-55 1-82 0-18-1-36 1-54v-52c1-3 1-4 4-5 7-3 15-5 23-6l15-2c3-1 5-1 7-3l5-1h27l18 1c3 0 4 1 3 5l-1 14-3 23-1 11-3 18-1 16-1 10c-1 2-1 5 1 7l2 1 1-2v-1l2-20 1-21 1-12 2-13 1-10c0-3 1-4 4-5 1 0 2 0 3-2v-12c0-5 0-5 4-4l24 2 25 3 15 1 23 2c8 0 17 2 25 1 7-1 13 1 20 2h3c10 0 21 2 31 1l7 1 18-2 25-10 6-3-1 6-22 74c-4 17-10 34-15 50l-15 53-11 37-9 33-11 39c-2 6-5 12-5 19h-62ZM0 798a2851 2851 0 0 1 133 2h3c5-2 9 0 13 1l7 3c2 0 3 0 4 2l2 2a887 887 0 0 1 21 7l14-14c2-3 1-6-2-7l-21-9-24-9c-1 0-3 0-2-1 0-2 1-2 2-2l5 1 20 5 7 1 2-1c1-1 0-2-1-2l-6-2-23-6c-4 0-8-1-10 4-2 3-4 1-5 1-2 0-3 0-4-2v-3c2-13 1-25 1-38l-1-7c-2-4-4-7-8-8l-25-8-29-11-43-17c-2-1-4-2-4-4s-1-2-3-3l-5-5c-2-4-1-9 2-12l5-4c7-4 13-9 18-15 8-8 11-18 9-29l-4-23-2-17-4-24-1-11c-2-5 0-8 5-8 4 0 8-3 11 0l9-1c4-1 4-1 6 3 2 6 7 8 11 11h1c6-2 10 2 15 4 12 5 24 10 36 17 18 10 37 16 56 24l11 4c2 1 3 1 4-2l1-1c2-3 2-3 5-1l51 25 63 31c2 1 4 2 4 6 0 3 5 4 7 2l5-6-5-3c-4-1-4-4-4-8l1-2-1-2-2 1-1 1c-2 5-2 5-7 2l-18-10-25-14-14-8c-2-1-3-3-2-5l10-37 7-23 1-6a304 304 0 0 0 35 51c4 4 6 10 8 15l1 2c1 1 1 2 3 2 2-1 1-2 1-3l-8-17-13-17-14-21c-2-3-5-6-6-11l11 1 14 1 27 3 10 1c2 1 4 1 6-1 1-2 3-1 4-1 3-1 4-1 3-5 0-1-1-3 1-4-6-1-11 1-16 2-7 2-15 2-22-1l-1-1c-6 1-11-1-17-1l-14-1c-2 0-6 1-7-4-5-1-2-4-2-7s1-5 3-7l3-4 3-24c1-5 0-9 3-13l2-6 3-19 1-13-1-4c0-4 1-7 5-8l45-11 43-10 35-9c4-1 5-1 5 3l5 28 4 19v10c1 10-1 19-3 29l-8 33-1 14c0 3-1 4-4 3l-2-1c-7 1-14-1-22-1-10 2-21 1-32 2l-2 2 2 1h16l5-1h19l13 1h3c2 0 4 2 3 4-1 4 2 5 4 7 1 1 2 0 3-1l1-4c1-15 3-30 7-44l7-29c3-8 2-17 2-26 0-1 0-3-2-2-3 0-3-2-3-4l-7-29c0-2-1-6 2-8 2-1 1-3 1-5-1-5-1-5 4-7l43-14 71-25 30-11c3-1 5-3 8-3l1 4c-1 8-2 17-5 24l-2 10c-1 5 0 10 1 15l7 21c0 2 1 3-1 5l-1 6 7 38 5 28c0 2 1 3 3 4 3 2 3 4 4 7l6 29 4 19c1 3 0 5-4 5l-19 4-17 2c-3 0-2 2-2 3 0 2-1 3-3 4-3 1-4 1-4-2-1-3-2-3-4-3h-10l-21 2c-2 0-3-1-3-3v-5c2-7 1-15 1-23l-2-14-1-6c2-6 0-12-3-18l-6-18c-4 1-5 4-7 6v3l6 16c3 9 5 18 4 28l1 9c1 6 0 12-1 18l-2 11c0 8-2 15-3 22l-2 25c0 5 0 12-2 17v41c1 18-2 36-1 53 0 4 0 4-4 4-19-3-37-10-55-16a527 527 0 0 1-39-14c-3-2-4-3-3-6 3-7 3-14 4-21v-8l-1-4a1094 1094 0 0 1 3-34l2-27 2-14c0-2 1-4-1-6-1 0-3 3-3 6 1 7-1 14-1 21 0 6 0 12-2 18v1c1 8 0 15-1 22-1 13-1 27-4 40v4c0 3-3 5-6 3l-43-20-9-3-9-6h-4c-5 5-5 6 1 9l58 29c4 2 7 4 6 9a2 2 0 0 0 1 2l2-1c1-4 4-2 6-1 21 9 42 15 64 22 5 2 6 3 4 8l-9 47-7 32c-2 6-1 11-2 17-2 8-2 16-3 25 0 5-2 6-7 7h-7l-7-4-7-11c-1 3 1 5 2 7l2 6 2 3 9 3 9-1c1 0 2-1 3 1 1 1-1 1-2 2a1967 1967 0 0 1-20 9c-3 1-5 3-5 7l-22-4c-9-2-19-3-28-6-3-1-4-1-4-4 0-2-2-3-4-3l-46-15-14-5c-4-1-4-2-3-5l1-7c0-2 1-4-1-4-2-1-3 1-3 3l-1 5c-1 5-2 5-6 4l-6-2c-2-1-4-3-6 1h-2l-6-2-2-2c1-3-1-3-3-4l-20-6-3-2c-1-4-3-3-6-2h-3l-44-14c-3-1-5-1-7 1l-26 28-8 8c-2 3-3 5-2 9v26c0 3-1 4-4 4h-3l-1 1 1 2 2 1c1 0 3-1 4 1l1 6 1 13c-1 4-1 7 2 10v3l2 20 1 20 2 27c-1 5-3 9-7 13l-32 25-5 4c-2 2-3 2-4 0l-2-2-28-39c-7-8-11-17-16-25l-8-13c-1-1-2-2-3-1-2 1-1 2 0 4l18 30 18 25 16 23c3 3 2 3-1 6l-14 10c-11 10-24 18-34 28l-7 6c-1 1-2 1-2 3H0v-24l4-3c4-3 8-5 10-10 1-3 4-3 8-2l3 2h1l1-2c-2-4-7-5-11-4-5 2-5 2-8-2l-5-7-3-2V897a1590 1590 0 0 1 29-48c8 15 14 30 20 45 7 15 12 31 20 46 2-2 3-3 2-6l-16-38-11-25c-2-3-1-3 3-3h12c8 0 17 2 25 1l8 1c2 0 3-1 2-3l-2-4-2-2-1 2c-1 2-2 2-4 2H74c-3 0-4-1-4-4l-2-15c-1-1 0-2 1-2 5-2 10-1 14-1 3 0 3 2 4 3 1 2 3 2 3 0 1-3 2-3 5-3l24-2 32-2h9c2 0 3-1 4-3l9-10-10 1h-24l-35 2h-2c-6 3-13 1-20 1H51c-8 0-15 2-22 3-3 0-6 2-8 4-6 7-12 13-16 22-1 2-2 3 0 5l-1 5-4 8v-79Zm509 268h21-21Zm457-143-3 17-3 19-2 16-3 18-3 26-4 25c0 3-1 4-4 3-11-2-21-6-32-10l-68-22-20-7c-3 0-3-1-2-3 5-9 11-16 17-22l20-25 22-27a3348 3348 0 0 0 13-17c-1-4 2-6 4-9a942 942 0 0 0 18-15l8 4 36 20c4 2 6 5 6 9Zm-288 106c-2 1-4 0-4-2-4-17-11-32-16-49a4328 4328 0 0 1-12-40c-1-2-2-3-4-2-1 1-2 0-3-1l-9-18c-1-2-1-4 1-5 6-4 13-9 20-11l37-10 19-7 4-5 8-13 4-12 12-21c2-3 3-4 6-4l17-1 5-4c1-3 3-3 5-2l9 1 1 1c1 4 5 3 7 4 10 2 20 5 29 10a148 148 0 0 0 19 9c2 1 2 2 2 4l-1 2-47 93-26 54c-9 15-7 12-21 15-11 3-22 6-32 7l-1 1c-5 4-11 3-17 4l-12 2Zm170-176 28 12c9 4 16 9 24 15 3 1 1 3 0 5l-7 10-28 36-28 35-27 36-10 15c-1 2-2 2-3 1l-22-11c-3-1-3-2-1-5l31-62 17-33 17-37 5-9 4-8Zm313-66v34l-1 62-1 49-1 58c0 4 0 5-4 3l-41-17-35-15-41-17-37-16c-6-2-9-4-9-11v-8c0-4-1-7-4-9-2-2-4-5-3-8 0-6-2-13-1-19l2-12c0-2 2-3 4-4l48-20 46-19 34-14a18986 18986 0 0 0 44-17ZM472 914c-3-3-6-4-10-5-2-1-3-2-4-5v-4c-1-2-1-4 2-5l2-2c0-4 3-6 6-7l10-5c4-5 11-7 16-11 6-4 13-5 20-6l28-5c4-1 5-1 4-6-1-3 0-3 2-4l21-5c4-1 7-2 11-1l5-1 11-1 16 1 10 1c2 2 4 1 6 1l2-2c1-4 3-4 6-4l26-3 11-2c8-2 16-2 25-2l8-2 7 2c1 2 3 2 5 1l10-1h3l-1 3-8 14-3 5-3 4c-3 0-4 3-6 5l-8 11c-2 3-5 5-8 6l-43 18-25 9c-14 4-27 10-40 15l-26 11-25 11-10 5c-2 1-3 0-5-1l-3-6c-2-4-6-6-9-9-1-1-3-1-3 1-2 1 0 2 1 3l3 2c2 1 5 3 5 6 1 3 3 5 3 8 0 2-1 3-3 4a973 973 0 0 0-55 20c-5 2-11 3-16 3l-23 2-19 1c-4 0-5-1-4-4l3-20 1-7v-19c0-2 0-3 3-4 4 0 4 0 4-4v-2c0-4 0-4 5-5l22-2 17-3c4 0 8 0 12 2h8Zm-55-1c-5 0-5 0-4-4l2-11c1-3 1-4 4-3l14 2c6 1 11 2 17 0l4 2 1 7c0 2 0 2-2 2l-22 3-11 2h-3Zm553-25-1 1a90 90 0 0 1-25-17c-1-1-1-2 1-2l20-3 2 1 1 3c2 6 2 12 2 17ZM53 864l-11-1-3-3-5-11c-1-2-1-4 2-4 8-1 16-2 25-1 1 0 2 0 3 2 1 5 2 10 1 15v1a2 2 0 0 1-2 2H53Zm891-7-22-2-13-3c-3 0-6-2-9-4-6-5-15-8-22-11l-40-17c-2-1-3-1-3-3 1-3 1-5 3-7l4-1 26-4c6-1 12-3 17-8 1-2 2-4 0-6a1293 1293 0 0 1 16-26l6-3c11-7 23-13 34-21 4-2 5-2 6 3l2 14 3 23 2 19c2 6 0 11 1 16l7 35c1 3 1 3-3 4l-15 2Zm-240-51c-2 2-3 2-5 2l-31 4-11 3c-4 2-9 2-14 3l-43 9c-3 0-4 0-5-2s-1-3-3-2-4 0-4 3c-1 4-1 4-5 5l-46 9a22849 22849 0 0 1-39 8l-10 5c-3 1-4 0-3-2l1-14 1-15 4-22 11-49 4-23c1-3 2-4 6-3l25 5 7 2 27 9c2 1 3 2 4 5l6 34 1 4 2 1a1 1 0 0 0 1-2l-3-18-3-19c-1-2 0-2 2-2l34 12 42 22a456 456 0 0 1 47 28Zm270 37-4-22a542 542 0 0 1-10-68l-2-20v-8l1-16c2-5 3-11 8-15 3-3 7-4 11-6l3-2c4-3 7-3 12-3l16-2 13-1 24-1 29-2 33-3 25-2c5-3 10-2 15-3h12c2 1 5-2 6 0 1 3 3 5 3 8-1 7 0 15 1 22l2 33 2 30c0 5-1 5-6 7l-69 28-37 15-45 20-25 10c-4 1-4 1-4-3l-3-22-1-11-4-35-2-27-1-22c-1-4-4-7-7-7-4 1-7 3-6 7l1 17v2l2 20 1 19 1 13 3 22 2 15v13Zm-529-4v-1h-1v1h1Zm311-38c0-4 2-6 3-9 2-5 5-9 5-15l1-3c7-15 9-31 13-46l8-25c1-3 2-6 1-10-1-2 0-3 1-5l3-18v-13c-1-9 1-18 1-26 0-3 1-3 3-4l13-1c12 1 24-1 36-1h1c5-2 8 0 11 4l1 4 1 30v8l-23 94-10 39-2 6c-1 3-1 3-4 1l-25-8-21-3-14 1h-3Zm-488-18c-2-1-5-1-7-3a2 2 0 0 0-3 1c-1 2 0 2 1 3l9 4c1 0 3 1 3 3s1 3 2 1c2-2 3-2 5-1l15 4c5 0 10 3 14 8l6 5 2 1 1-3-2-2-8-7c-2-2-2-3-1-6l4-5c3-4 7-8 12-8l10-4v-2c0-2-1-2-2-1l-18 7-4 4-5 8-4 2-21-6c-2 0-3-1-4-3l-7-18-4-9c-3 4-1 7 0 10 2 5 5 11 6 17Zm436 23ZM531 679v-24l1-53c1-6 0-12 2-18v-10c3-4 4-9 5-13l2-1 6-1 17-1 25-3 22-2 18-4c2-1 3 0 4 3l11 39 5 16 1 5c0 2 1 4 3 5 2 0 3 1 3 3 4 13 12 24 18 35l4 6c3 3 4 7 5 11 0 5 1 9 4 14l17 29c6 11 14 21 22 30l6 6 1 3c0 3 1 6 3 7l14 16c2 1 2 3 1 5l-7 18-5 5h-12c-3 1-6 0-8-2-8-8-18-15-27-21l-47-26-31-14-26-9-5-2c-4-1-5-2-4-6l1-9v-2c0-2 1-4-1-4-2-1-2 1-2 3l-2 12c-1 3-1 3-4 2l-14-4-19-6-4-1c-2 0-3-2-3-4v-33Zm1389 123-6-1-30-14-49-23-57-24-34-15c-4-2-5-3-3-6l11-18c11-20 24-38 36-57l3-4c2-2 3-3 6-2l8 3c2 1 5 2 7 1h5c19 4 37 10 55 16a908 908 0 0 0 48 14v130Zm-789-466 3 1 17-2h6c4 0 7-1 10-3 2-1 5-2 7-1 7 0 14-3 20-1h7c3 0 3 0 2 3l-11 22-5 9-20 39c-2 4-3 4-7 3-5-1-11-1-16-3-3-1-5 2-7 4a2 2 0 0 0 0 3c2 2 4 4 7 4 19 3 37 7 56 12h2l20 2 14 1c5 0 6 1 5 6l-3 14c2 1 5 0 6 2l2-13c1-3 1-3 5-3l25 4 8 1c2 0 5 0 5 3 5 3 2 8 1 12l-7 43-6 30-16-6-17-7c-2 0-5-2-6-4l-2-4c0-3 0-4-3-4h-3l-1 1c-2 4-2 4-6 3l-75-30h-2c-1-1-3-2-4 0s1 2 3 3l8 4 41 17c2 1 3 2 3 4-1 3 1 4 3 5l75 30c3 1 4 2 3 5a11 11 0 0 0 0 3 3 3 0 0 1-4 3h-2c-8-1-16 1-25 2l-19 3-30 4-39 9-17 4c-3 0-5 0-7 2-1 2-4 1-6 1-6 1-13 3-20 3-4 0-5 0-4-4l2-17 4-24 2-17c0-1 1-4-1-4h-8l-1 2-3 20-3 17-2 17-1 8c0 2-2 4-4 4l-11 3-13 6-11 10c-8 8-12 19-18 29l-19 36c-1 2-2 3-4 3l-7 1c-13 0-27 3-39 9l-4 2c-2-4-2-9-2-13l-5-31-5-29-4-31-4-25-2-15-2-10c0-1 0-2-2-2a2 2 0 0 0-2 3l2 14 4 25 5 30 3 24 3 15 3 24 3 15c1 4 1 8-2 12-7 7-10 16-11 26v17c1 1 0 3-2 4l-20 11-28 16c-7 5-12 10-15 17l-4 10c0 2-2 4-4 5l-18 4-11 2c-3 0-4 0-3-3l10-40 17-70 3-14v-4l-1-25c0-8-1-15-5-22l-9-18c-2-2-2-3 0-5 7-6 8-14 6-22-1-3-2-6-1-10v-5c0-2 0-3-2-3-1 0-2 1-2 3 0 7 0 14 2 21 1 4-2 8-4 11-1 2-3 1-3-1l-4-12-5-17-1-2c-3-2-3-6-4-10-2-11-7-22-10-33-6-20-14-39-22-58-2-7-6-13-9-19-2-5-5-8-9-10l-19-19-14-14-8-9c-3-3-6-5-8-10 0-3-3-5-6-7-3-3-4-6-4-10l-2-18-4-24c-1-3 1-4 4-3a3006 3006 0 0 1 87 22l18 5 2 1c1 0 3 0 3-2a2 2 0 0 0-2-2l-9-3-69-18-31-8c-3 0-5-1-5-4l-4-14c-1-3 0-4 3-5 11-3 22-8 34-9l9-3 92-28 8-2c4-1 5-1 5 2l4 21 4 27 2 9v3l2 1 2-2-2-10-4-28-4-21c-1-4 0-4 3-5l22-4 30-6 37-7 27-5a20314 20314 0 0 1 67-12c4-1 6 0 6 3l6 30a1000 1000 0 0 0 6 39l2 12c-1 2 0 3 2 3l2-2-2-16-9-48-3-18c-1-4 0-5 4-6l23-4 40-7 29-5 42-8 33-6c10-2 20-5 31-6l12-3h5l2 2c2 5 4 11 3 17 0 13 3 25 5 37l3 24 2 11c1 6 0 7-5 10l-41 22-18 10c-10 7-20 12-27 21-3 3-6 4-10 5l-19 2-20 3-21 2-5 1c-2-1-3 0-5 2ZM342 762l10-4c5-3 9-3 14-3 10-1 19 2 29 2l3 1c2 0 3 1 3 3 0 7 2 15 4 22l5 8a2 2 0 0 0 3 1v-3l-5-9-3-19v-7a5793 5793 0 0 0 10-43 3827 3827 0 0 1-8 19l-6 21c0 2-2 3-4 3l-11-2c-9-1-18-2-28 0-6 1-12 5-16 10ZM0 481l5-1c3-1 4 0 4 2l2 8c0 2 1 5 3 6 2 0 2 2 2 4l2 6c1-2 1-2-1-9l-3-9-2-10c14-1 27-6 41-9l7-2c2 0 3 0 3 3l5 36c1 3 0 4-2 5l-17 2-14 3c-2 0-5 0-7 2s-3 1-4 0l-1-2c-1-1-2-2-3-1l-1 3 5 5c2 1 3 3 3 6l4 26 4 32 4 21c1 6 1 11-2 16l-4 5c-3 1-4 4-6 6l-15 11c-5 4-7 9-8 14-2 11 3 19 13 24 16 9 33 17 50 23l18 7 7 2 10 2 18 7c4 1 4 1 4 6v32l-1 8-2 2-4 1c-6 0-13 1-19-1h-1a1773 1773 0 0 0-97-1V481Zm1626 205-11 7-1-2c-3-4-5-5-9-2l-28 19-12 8c-8 5-13 11-19 17l-6 5c-14 8-29 14-42 24l-6 2-5 1c-6 3-13 4-19 5-10 2-19 0-29 0l-32-2-30-2-29-2c-3 0-6-2-8-6l-9-27-1-9-1-57-1-57-1-32v-3c0-3 1-3 3-2l14 5 66 26 23 10 40 16 82 31c22 8 43 15 64 24l7 3Zm-929-17c4 2 8 0 12 0h28c2 0 5-1 6 2l3 1 31 1c4 0 4 0 3 4-3 21-10 41-15 62l-6 25-1 2c-1 3-3 4-6 1l-5-6-11-11c-8-7-14-16-19-25l-4-6-1-4c1-2 0-4-1-6l-16-31-1-6c0-3 0-3 3-3Zm626-87c2 25 0 49 1 74l1 26 2 34c1 6 0 13 2 19 1 8 4 16 7 24 1 2 1 3-2 3l-16-2-16-1-15-2h-4l-11 1c-9 1-18 0-27 2h-1c-10-1-19 1-28 1-2 0-4-1-5 1-4 2-7 2-11 2h-8c-3 0-5 0-5-4v-1l-2-20-1-22v-2l-2-24c0-7 1-14-1-21v-2c0-12-2-23-3-34l-2-26-1-24c-1-5 0-5 5-6l36-8 18-2 21-3 13-1 23-1c10 0 20 2 30 4 2 0 2 1 2 3v12Zm406 118 4 4c2 2 1 3 0 4l-4 6-2 3-7-3v-2l7-11 2-1Zm-87-24 10-10c2-2 3-1 5 0l9 4 29 14c5 2 8 6 9 12 1 3-1 5-3 6-2 2-3 1-5 0l-2-1a41046 41046 0 0 1-52-25Zm-16 10Zm32-32 17-24 14-19 2-3c4-5 4-6 11-4l31 9c4 1 5 3 5 7l1 11c0 8-2 15-6 21l-18 28-1 3a2 2 0 0 1-4 0l-5-5-9-6-20-9-18-9Zm-497-72 1 13 1 17 2 22c1 7 2 15 1 23 0 3-2 5-5 6l-16 2-16 2h-1c-8-1-15 1-22 1l-17 2-13 1-17 1-5 1h-5c-4-3-10-2-15-3-3-1-3-1-2-4 4-7 7-15 12-22l11-22 8-14 1-1c8-4 16-11 26-12l2-1c8 1 16-2 24-3l36-7 9-2Zm468 91-1-1-18-6c-3-2-3-2-2-6l12-32c1-3 2-3 4-2l32 17 2 2 1 1c-2 2-2 6-5 6s-5 1-6 3a33206 33206 0 0 0-19 18Zm291-9-15-5-65-21-31-9-4-2 4-4c2-2 4-4 4-7l1-3 8-8c14-17 30-32 45-48l48-48c1-2 2-5 5-5v160ZM728 631h48c6 0 4 0 5 4l1 10v15c0 2-1 3-4 3l-10-1-30-1-39-2-8-1c-2 0-3-1-3-2-5-5-7-11-10-16l-4-6c-1-2 0-3 2-3h52Zm608-116c9 3 18 1 27 2l15 1 12 2 26 2 9 2 36 7 32 9 48 15 71 21 19 6c3 2 3 2 2 5l-2 5c-7 14-13 28-18 43l-8 23c-2 4-3 4-7 3l-40-15-32-12-38-14-4-3c-8-10-19-15-30-19l-49-20-5-2c-3 0-6 0-7 3s-3 1-5 1l-19-8a5234 5234 0 0 0-49-22l8-31c1-4 1-4 5-4h3Zm322 139Zm93-34c11 2 21 6 31 9 0 3-3 4-5 4-8 1-13 6-17 12l-1 2c-2 3-3 3-5 2l-3-1a1 1 0 0 1-1-2c3-7 1-15 1-22v-4Zm-89 22-3-2-33-17c-3-2-4-3-2-6l6-13 7-16c1-2 2-3 5-2l44 13 2 1c2 1 2 2 1 4l-6 9-18 26-3 3Zm258-325-21-2-12-1c-2 0-3 1-2 3l1 20 1 39 1 28 1 30 1 29 1 30 1 19c0 2-1 5-3 7l-20 20-29 31-31 34c-6 7-14 12-20 20-2 2-4 2-6 1a4164 4164 0 0 0-32-12l-3-3-2-3c-1-5-2-11-1-16 2-15 7-28 11-42a593 593 0 0 0 14-66l2-24 1-5V316c0-4 0-4 4-5h2c1 0 2-1 1-2l-1-1-2-1c-5 0-5 0-6-6l-1-24-1-13-2-19-1-25-1-18-1-32-1-21-1-27-2-28c-2-7-1-7 6-8l21-1 26-1 36 1 25 1 28 1 18 1v229ZM796 623c-2 1-5 0-7-2s-5-2-9-2H672c-7 0-8 0-10-7l-20-69-1-3c-5-4-5-10-7-15l-9-42c0-3 0-4 3-5l8-5c19-3 37-9 56-15l63-21 13-4c2 0 5 0 6 2l8 6 5 8a508 508 0 0 1 37 97l17 54c1 5 4 10 7 14 1 2 3 4 2 6-2 2-4 1-6 1l-39 2h-9Zm972-240 1 63-2 27-5 32-4 19-14 52-4 17 1 12c1 5 0 7-5 5a905 905 0 0 1-91-27l-33-10-60-19c-4-1-4-1-3-5l8-20 15-35 3-12c3-9 7-18 9-28l5-21 2-22 2-8 15-20 8-10c9-8 15-17 20-27l25-52 13-27 9-19c2-4 5-5 8-5l21-3 26-3 19-3h3l2 1 1 7 2 19 1 19 1 14 2 21-1 68ZM293 415c1 10 0 20-2 30l-7 42-2 11c-1 2-2 4 0 6-1 4 1 9-3 13-3 2-3 4-2 8l1 4-18 61c-1 4-1 4-5 3l-49-18c-2-1-3-2-2-5l4-16 8-29 2-10c1-2 2-5 1-8l2-11 9-40 4-14v-8c-2-6-1-6 4-7l24-5 26-6 5-1Zm-63 21-3 17a570 570 0 0 1-24 87l-7 22-1 4c-2 3-3 3-6 2l-14-6-41-15-23-11-19-8-2-2c-5-2-7-5-7-10l-4-29-3-22c-1-2 1-3 3-3 7-3 15-3 23-5l33-7 63-12 27-7c5-1 5-1 5 5Zm1052 111c0-4 1-5 5-4l14 2 4 1c1 0 3 1 3 3l-3 2h-1c-7-2-13-1-19-1-3 0-4-1-3-3Zm305-173v12c-1 4 1 8 1 12l-2 22-1 14-3 14-4 12-9 30-5 12-18 45c-2 4-2 4-6 3l-31-10-53-14-34-6c-6-2-12-2-19-3l-21-2-13-1-17-2c-6 1-13-1-19-1-3 0-3-1-3-4l4-15 10-40c3-11 6-22 11-32l21-39 22-44c2-4 2-4 7-4l14 1 30 1 24 1 25 1 23 1 25 1 23 1 14 1c2 0 3 1 3 3l1 30Zm-278 70 9 1 8 1c5 0 5 1 5 5l-17 66-3 15c-1 3-2 4-4 3l-16-2c-2-1-3-1-3-4l7-39 7-37 1-5c1-4 1-4 6-4Zm611 46c-2 0-3 2-4 3l-18 17h-2c0-9-2-18-1-27l-2-40v-28c-2-11 0-21-1-32l-1-28c-2-11-1-21-1-31l-1-6 31 3v169Zm-836-150c-1-2-2-4-1-6v-14l-1-4s-1-2-2-1l-1 2v17c-1 2 2 4 0 6s-5 0-7 2h-1l-31 2-31 2-31 2-25 1h-3l-10 1c-2 0-3-1-3-3 1-7-1-14-1-21v-2a2 2 0 0 0-2-1 2 2 0 0 0-2 1v10c2 5 1 9 1 14 0 2-1 3-3 3-5-1-10 1-15 1l-24 1h-2c-4 1-5 1-4-4 0-6-2-13-1-20 0-1-1-2-3-2l-1 2v24l-9-3-17-5c-1 0-3-1-3 1-1 2 1 3 2 3l2 1 23 6c1 1 3 1 3 3-1 4 0 8 1 13v26l2 41 1 34v3c1 4 1 9-2 12l-8 12-7 10c3 1 4 0 6-2 4-7 10-13 14-21 1-1 1-2 3-2l8-1 18-2 14-1c4 0 4 0 4 4l1 19c0 1 0 2 2 2s2-1 2-3l-1-19c0-3 1-4 4-4l29-2c7 0 14-2 22-1h1c7-2 13-1 20-2 7 0 15-2 23-1h2c8-2 16-1 24-2s15-2 23-1h2l8-1c2 0 3 1 3 3l1 17c0 5 1 5 6 5h2c2-1 3-1 3-3 0-4 1-9-1-13l1-4 15 6-1-10c0-2-1-3-2-3l-16-6c-2-1-5-1-7 1-2 4-6 3-9 3-1 0-2-1-2-3-2-7-2-15-2-23-1-8-2-15-1-23l-1-2c0-3 0-4 3-4h16c5 1 10-1 15-1l2-1a2 2 0 0 0-3-3l-1 1h-29c-3 0-3-1-3-3 0-10-2-20-1-30 0-8-2-16-1-25 0-4 0-5 5-5 9-1 17-3 26-3 1 0 2-1 2-3l-2-1c-3-1-6 0-9 1l-22 2ZM889 464l-2-36v-27l-1-27-1-13c0-2 1-3 3-4h2l19-1 28-2 15-1 24-2c7 0 14 1 22-1h1l24-2c7 0 14 1 21-1h1c8 0 15-2 23-1l8-1c3-1 4 0 4 3l1 34 1 28 2 30c1 6 0 13 2 20v4c0 2-1 3-4 3l-19 1-34 2-29 2-28 2-28 2-24 2-27 3c-2 0-3 0-4-3v-14ZM0 250l1 3c0 9 2 17 3 26l4 27 3 24c-1 10 2 20 2 30l2 26v2c3 5 1 9 2 14 2 12 1 25 1 38l1 9-1 13a5166 5166 0 0 0-18 6V249Zm617 162c0-2 3-5 5-6l60-17 31-10 3-1c7-1 5-2 9 3l10 12 24 27c2 1 1 2-1 3l-12 4c-2 0-5 1-6 3s-3 2-4 2l-44 12-20 6-41 13c-3 2-4 1-5-3l-6-33-3-15ZM31 445c1-10-1-20-1-31l-1-14-1-2c-3-2-2-4-1-6v-21l-2-20-1-12-2-21-3-20-2-16-2-10c-1-2 1-3 3-3 13 2 25 1 37 1h47c4 0 7 3 6 7-2 4-1 9-2 13l-1 16-2 15c0 2 0 3-2 4l-1 2v5c1 10-1 21-4 31l-8 41c-1 2-1 5-5 6l-1 2-6 24c-1 3-2 6-1 10 0 3-2 4-4 5l-24 6-11 3c-5 1-5 1-5-4v-11Zm428-17c2 2 4 1 5 1l15 1 15 2 11-1c3 0 5 2 6 4l5 12c1 2 2 2 3 1l5-5v-4c-5-10-13-12-23-13h-29l-13 2Zm-304-94h25l18-2 25-4h11l3-2 7-2 16-1 13-2c4 0 4 1 5 5l6 22 1 8v5l6 25 1 14c1 2-1 2-2 2l-41 9-27 8-56 12-47 9-27 6c-4 0-4-1-4-4l1-4c-2-5-1-9 0-14l12-55 7-31c0-3 1-3 4-3 15-1 31-2 43-1Zm1231-1-12 23-15 29-15 29-10 24c-1 4-2 4-6 4l-20-2c-2 0-4 0-5-2l-3-2c-3-1-4-3-5-6-2-5-3-11-2-16l3-18a2232 2232 0 0 0 6-45l2-18a2 2 0 0 1 2-2h11c18-1 36 1 54 1l15 1Zm-95 100-16-2-32-7-67-15c-7-1-8 0-4-8l22-43 12-23 3-5 2-1c5 0 9-3 14-3h19c2 0 5 0 6 4 2-3 2-4-1-4l-2-1c-10 1-20-1-31-1h-1c4-7 10-11 17-15 15-10 32-19 49-28l17-9c2-1 3-2 4-1v19a264 264 0 0 1-2 32c2 9-1 17-2 26v11l-1 5c-3 8-3 17-4 26a1381 1381 0 0 1-4 30c1 4 0 9 3 13h-1Zm-832-5ZM342 230c5-2 7 2 9 6l14 18 5 13 4 12 2 15 7 29 9 41v11c1 2 0 3-2 4l-39 9-21 5-21 5c-3 1-4 0-4-2-2-17-7-34-10-52l-3-9c-3-5-4-11-5-17l-5-18-3-11v-3c3-3 1-6 0-9l-6-24c-1-5-1-5 5-7l57-15c2-1 4-2 7-1Zm259 135v-4l5-21 2-15c0-5 0-5 4-6 24-8 48-15 73-21l15-4c3-1 4-1 5 2l7 31 3 27 1 8c0 2-1 3-2 3l-4 2-35 11-37 12-24 7c-4 2-4 2-5-2l-8-25v-5Zm1079-120-7 16c-8 17-17 33-24 50l-16 33c-4 8-9 16-16 22a145 145 0 0 0-24 30l-1 1-1-2v-36c-2-27-1-54-1-81l1-20c0-1 0-2 2-2 4-2 9-2 13-2l31-4 21-2 17-3h5Zm-1112-7 8 17 13 28 10 23c1 2 1 3-1 4l-9 4-72 26-54 18-55 16c-2 1-3 0-3-2l-8-38-9-49-7-28-8-14-17-23c-5-7-10-15-16-21l-19-27-19-26c-2-2-1-5-1-8l3-1 39-12c4-2 8-2 13 1l40 22 20 11 42 22 48 26c17 9 33 18 48 29l4 2c3 3 7 4 10 0Zm1019 35c-2 20-1 40-1 60 0 3 0 4-4 4l-32-2h-9c-2 0-3-1-3-3 1-6-1-12-1-18 1-12-2-24-1-36v-9c1-3 3-5 6-6l18-3 19-3h2c5-1 6 0 6 5v11Zm-13-154-1 7v4l3 27 3 32 2 13 1 14 1 10 3 20v4c0 2-1 3-3 3l-32 4c-5 1-10 2-15 5-4 4-5 8-4 12v7c0 13 2 25 1 38l1 13c0 2-1 3-3 3l-8-1h-6l-40-2-23-1-25-1h-23c-4-1-5-2-4-6 5-13 6-27 9-40l8-45 3-25 3-32 3-19v-19c0-5 1-6 5-6l33-4 21-3c9-1 18-2 28-5l20-4 18-5 16-4c4-1 4-1 5 3v3Zm-163 70c1 6-1 13-1 19l-3 20-6 34-5 33-7 31c-1 2-2 3-4 2h-19l-20-1h-39c-2 0-3-1-3-4 0-4-1-8 1-12v-1c-1-8 1-15 1-22l1-19c0-3 2-4 4-5l13-10 45-35 34-25c2-2 4-4 8-5ZM112 302v-12c0-2-1-5 1-7l1-4c0-2 0-3 2-5 3-2 5-2 8-1 6 2 13 2 20 2 2 0 5-1 6 2l2 1 10 1c11 1 22 2 34 1l34-1h17l19 2c1 0 2 1 2 3l5 20 1 1c0 6 0 6-6 6l-16 2-10 1-33 4-21 2h-1l-35 2h-31l-5 1c-1 0-2 0-3-2-2-7-1-13-1-19Zm616-95c-1 11 2 24 5 37l4 23c0 2-1 3-3 3l-11 3-68 19-35 11-13 4c-2 0-3 0-4-2l-20-45-10-23c-2-3-2-3 2-5l5-2c2 0 4-1 4-4 0-2 1-3 3-3 3-1 7-3 11-2 2 1 4 1 4-2s2-3 3-4l11-2c2-1 4-1 5 2l4 1 75-19 25-7c3-1 3-1 3 2v15Zm-588-66 7 2 30 10 48 16c7 3 14 4 22 4h9l5-1 23-14c6-4 8-3 12 3l32 43 8 10c1 2 2 3-1 5-3 3-7 3-12 4l-43 11-8 2c-9 3-12 10-10 19l4 18c1 3 0 4-3 3l-24-1a901 901 0 0 1-82-1c-10 0-19-2-29-4l-6-2c-1 0-3 0-3-3l-2-2c-4 0-3-3-3-5l7-32 1-3c5-1 4-5 5-8l5-36 6-35c0-2 0-3 2-3ZM0 56l9 1c6 0 11 0 17 2h1l23 1c2 0 5-1 6-3 4-4 7-4 13-2 4 2 8 1 12 0h17c8 2 17 3 25 3 4 0 4 0 4 4 0 2-1 6 3 6l1 3c0 4 1 8-1 12v3l-2 24-1 14-2 18-4 24-5 29-3 21-4 25-3 21c-1 4-1 4-5 4H19c-5 0-5 0-6-5a806 806 0 0 1-13-59V56ZM999 0l-11 33-4 14-4 10-37 60-26 43-31 52-8 13c-1 3-3 5-7 5l-17 4-40 13-49 15-12 4c-2 0-3 0-4-3-2-11-3-23-6-34-3-14-1-27-2-40 0-3 1-4 4-5h2c6-2 6-2 6-8 1-4 1-5 5-4 4 2 8 1 13 0 6-1 13-3 19-7 2-1 4-1 6 1l3 2 34 33 10 8c3 3 5 3 8 0 3-2 3-5 1-8l-6-6-17-17c-11-9-21-19-31-30l-10-14c-2-2-2-6-1-9 3-8 1-16 0-24l-3-18c-1-2 0-3 1-4l13-18 18-26 24-35h159Zm307 261-2-13-4-26-3-24-4-25v-7c1-2 3-1 5-1l35-6a21702 21702 0 0 0 65-11l13-2c4-1 4 0 4 4 0 7 0 14-2 21l-1 8-3 6-43 32-55 42c-2 1-2 2-5 2Zm452-131 2 35 1 25v27c1 4 2 7 1 10 0 2 0 2-2 3l-24 3-18 2-17 3-27 3-18 3-19 2-21 3-11 1c-4 1-8 0-12 2-2 0-3-1-3-3l-3-26-3-23-2-23c-1-5-2-10-1-14l-2-10-2-23v-6l1-11c0-1 0-2 2-3l24-4 26-4 19-2 21-3 21-2 19-2 14-2 21-3 8-1c1 0 2 1 2 3l2 13 1 16v11ZM620 0l2 15 2 16c1 5-1 10-2 14-2 5-2 11-3 16l1 15 3 19c2 11 6 21 7 31 4 18 11 34 17 51l5 17c2 4 1 4-2 5l-27 6c-16 3-31 8-45 14l-16 7c-2 1-3 0-5-1l-13-9c-3-2-6-5-10-6l-2-2-1-8v-8c1-14-1-29-1-44v-3c0-2 1-3 3-3s3-1 3-4l3-17c0-2 1-5-2-6-2 0-2-2-2-3l1-9 6-35c1-3 1-5 5-6l2-3 9-30v-8l-3-11c-1-3-2-6-1-10h66Zm274 225c1-4 4-7 6-11l6-9 2-7c1-5 5-9 7-13 1-3 2-5 5-5l3-4 31-51 28-47 11-17c1-2 2-2 4-2l34 10 20 6 5 2c2 0 3 2 2 4 0 5 1 9-1 14v1c1 11 0 22-1 33 0 9 0 18-2 27v1c1 10-1 21-1 31v5c-1 2-2 4-4 4l-40 7-23 5-37 6-27 6-23 4h-5Zm-370-22-5-2-55-29-28-14-48-27-29-16-2-1c-1-1-2-2-1-3 0-2 1-3 3-3h10l18-2c2 0 4 0 5-2 0-2 2-2 4-2 6-1 12-3 19-3 10 1 19-1 29-1l13 1 9 1 11 1c2 0 2 1 3 2 2 2 4 2 5-1 0-2 2-2 4-2 11 3 23 4 34 5 2 0 3 1 3 2v1c5 4 2 9 2 13l-3 24v29l-1 27v2ZM1253 0c3 1 5 2 5 5 5 6 4 13 5 20l6 30 7 37 4 24 5 25c0 2-1 3-3 4-2 0-2 1-2 2v1c1 6 1 6-5 8l-39 7-40 8-46 8-38 7-50 9h-3c-2 0-3 0-2-3v-2c0-10 2-19 1-28l2-26 1-18 1-25V83c1-4 1-5 5-5h2l2-3-2-1c-7 1-13-2-20-4l-35-10-15-4c-3-1-3-2-3-5l8-25 7-26h104l-3 11-7 36c-2 8-6 15-13 21 0 0-2 0-1 2 5 0 8-2 11-7 3-4 6-10 7-15l6-29 3-19h135ZM634 47l11 15 4 4c1 1 1 2 2 1 3-1 3 1 4 3l16 27 13 21c4 5 6 11 8 17l17 42c2 5 1 6-3 7l-38 10c-4 1-4 1-6-2a9299 9299 0 0 1-19-50c2-6 0-11-1-16l-8-33-2-10-2-20 2-16h2ZM734 0l-1 41 1 21 1 14c0 2 1 5 3 6l3 8 6 31 2 19 3 19v1c1 7 1 8-6 11l-6 1c-4 2-8 2-12 5l-6 2-12-29-5-12-1-2c-5-3-5-8-6-13s-4-9-7-13l-8-9-19-27-16-26-8-11-1-1c-3-4-4-9-5-14l-2-19-1-3h103Zm20 89c6 1 10 2 15 1 2-1 3 0 4 2l2 20v9c-3 10-1 18 5 26 5 6 5 6-2 9l-8 5c-4 1-4 1-5-3l-1-8-4-26-4-27c-1-2 0-5-2-8Zm-504 72-18-3-19-7c-16-4-31-11-47-15l-22-8c-4-1-4-2-4-6 2-11 3-22 3-34l2-24c0-2 1-3 3-4l16-7c8-3 14-8 21-13l20-14h3l3 3 50 50 19 21c3 3 3 7 4 10l4 10c4 8 2 15 1 22l-5 4-24 13c-3 2-7 2-10 2ZM1273 17l-2-13c0-3 0-3 3-2l23 7 57 18 52 16 44 11 15 4 14 2 17 1 27 1 19-2h1c7-1 8 0 8 7l3 18 3 24a2 2 0 0 1-2 3c-8 2-15 6-23 7l-24 5-25 4-19 2-21 3-6 1c-4-1-9 1-14-2-3-3-7 0-11 0l-27 5-38 6-27 5-22 3c-3 1-4 0-4-3l-3-12-1-11c-3-13-4-27-6-40a689 689 0 0 0-11-61v-7ZM335 0l1 12 1 14 2 17 1 12 1 17 2 16c0 7 2 15 1 22 0 3-1 4-3 5l-32 8c-4 2-9 4-14 4l-7-18c-2-6-5-12-9-16l-64-66c-5-5-5-4 0-8 8-6 17-10 24-16l6-3h90Zm1301 92v3c0 2-1 3-3 3l-27 4c-14 1-28 5-42 8-3 0-3 0-4-3l-4-37-1-8a2 2 0 0 1 2-3l14-1 22-2h2l22-1 13-1c2 0 3 1 3 3l3 32v3ZM546 0c2 4 4 8 4 13v4l-5 16-10 37-3 24c0 5-4 7-9 7l-18-2-19-3-27-4-3-2-2-8-7-28c-1-5-1-6 3-8 12-7 23-17 34-26l25-20h37ZM422 0a15026 15026 0 0 0 20 90l-24 2-17 2-12 1-17 1-15 1c-6 0-5 0-6-5l-1-16-1-11-3-26c-1-9-1-18-3-26V2l-1-2h80Zm1296 80c0 7 0 7-6 9l-12 1-24 3-21 2-11 2c-3 0-4 0-4-3a208 208 0 0 0-2-23c0-3 1-4 5-4l13-1 20-1 21-2h6l9-1c3-1 3 0 4 3l2 15Zm74-80a136 136 0 0 0-1 27l1 3 2 26 2 19c0 4-1 5-5 6h-3c-9-1-17 1-26 1l-18 3-18 2c-3 0-4-1-4-3 0-12-2-23-3-34l-3-22-2-25-1-3h79Zm128 0v84h-15l-29-1-24-1c-14-2-28-1-43-1l-3-1c-2 0-5 1-6-1l-1-7-2-25-2-34 1-13h60l7 3c7 3 14 3 21 0l7-3h29ZM824 0l-13 19-37 52c-4 6-10 6-16 6l-5-1-5-4c0-2 0-4-3-4l-1-3V11l2-11h78Zm886 0v2c0 6 2 11 3 16v3c-1 10 1 19 2 28 1 8-1 10-8 10a220 220 0 0 0-27 2l-28 2h-12c-2 1-3-1-3-3l-1-11a185 185 0 0 0-12-49h86Zm-102 0-15 11c-7 5-15 10-21 16-8 7-16 14-20 24-1 5-2 5-6 5a138 138 0 0 0-21 2h-15l-26-2c-13-1-25-5-38-8l-40-9-16-5a27215 27215 0 0 1-108-34h326ZM174 0l3 2 23 17 1 1c2 2 2 3 0 4l-6 4-17 12c-7 5-14 8-21 11l-11 5c-4 1-5 0-5-4l1-9 4-31 1-7c0-3 2-4 4-4h3c5 2 10 1 15-1h5Zm1445 0 3 5c4 12 8 25 9 37v1c1 7 1 6-5 7-7 1-14 0-20 2h-2c-7-1-15 0-22 1-6 1-13 0-19 2l-7-1c1-6 5-11 9-16 7-8 17-14 26-21l22-15 4-2h2ZM133 0h7c3 0 4 1 3 4l-1 8-4 32v7c-1 2-2 4-5 4a256 256 0 0 1-27-2l-24-1c-7-1-15 0-23-2h-1l-25-2c-8 0-15 1-23-1H0V0h133Zm1423 54ZM501 0l-15 11-27 21-12 9c-2 2-3 2-4-1-1-9-4-17-6-25l-3-15h67ZM237 0c-7 3-13 8-20 12l-5 4c-5 4-5 4-9 0L181 0h56Zm1643 0-1 1h-11l-2-1h14Z"/></svg>