<svg xmlns="http://www.w3.org/2000/svg" viewBox="0 0 1920 1080"><path fill="#c7defc" d="M1044 1080c0-2-2-3-3-4l-22-23-29-31-22-23-26-30-19-22c-6-7-13-14-18-23l27-16c5-3 10-2 16-1 7 0 14 3 21 5s15 4 23 2l15-1c5 0 9-2 14-5 8-5 16-9 26-7 7 2 15 0 22-3l9-8 4-4c3-4 8-7 12-7 6 0 10-3 15-5 6-3 11-8 16-12l18-15 28-19 25-14 21-12c5-5 10-9 14-16l1-7c-1-2 0-4 1-6s3-3 6-3h3c7-1 12-5 17-9l25-23 23-20 17-13 19-16 13-10 4-4 23-23c10-11 21-20 32-30l19-17 5-4c7-6 11-14 16-21 1-3 3-6 6-8l9-9c9-10 19-17 28-24 10-8 20-15 29-24l7-7c5-6 11-10 16-14l9-8c1-1 2-1 4 1l7 11a447923 447923 0 0 1 106 153l5 7c2 3 2 3-1 5l-14 10-6 5c-6 8-15 14-23 19-6 4-12 5-18 7h-2c-9-3-16 1-23 4l-18 7-4 2-19 17-7 3-10 3c-7 2-12 6-18 10-3 2-4 4-5 6-3 6-7 11-11 15l-24 24-11 7c-8 2-15 7-22 11-4 3-7 7-8 11l-4 17c-2 8-6 15-12 21-9 9-17 18-24 29l-21 30-26 38-31 47c-6 9-11 19-15 30l-15 39-1 5h-244Zm-210 0c0-5-1-11-3-16-1-5-5-9-10-10l-1-1c-4-2-7-2-11-1a13 13 0 0 1-15-5l-5-8c-3-5-3-10-1-15 1-4 4-7 4-12l3-3 27-27 16-15 9-6 46-29 8-5c4 8 10 14 16 21l22 26 15 17 31 33 27 30 22 22c1 1 3 2 3 4H834Zm-177-20-2-1-4-8c0-3 4-3 6-5l12-6c1-1 2-1 3 1l2 2c3 6 3 6-3 9l-10 6-4 2Zm774-88v-4l3 2c0 2-2 2-3 3l-1 2-2 1-2-1 2-2 3-1Zm126-91c0 3-1 3-2 5-2 1-4 1-4 3-1 2-3 2-4 1v-2l5-3 5-4Zm27-53c-3-2-4-5-6-8 2 0 3 2 5 3 2 0 0 3 1 5Zm245-141-3 3-4 2c2-2 3-6 7-5Zm91-176c-4 4-10 5-15 4-8-1-15 1-22 5-11 6-23 11-33 19l-14 13-9 8-61 42-28 19-26 19c-3 2-4 2-6-1l-16-23-40-57-30-44-23-34-10-14 1-3 20-10c18-8 34-20 50-31l35-20 32-18 33-21 21-11 24-11 21-11 26-15 26-14c8-5 18-9 27-13l17-6v228Zm-72 128c-2-2-3-2-5-2l1-1c2-1 4-3 4-5 1-1 1-2 2-1 2 0 1 2 1 2-2 2-3 4-3 7Z"/><path fill="#f2f2f2" d="M1498 1080c1-6-2-9-7-12-5-4-6-5-2-10 8-14 15-28 26-40l8-10c1-2 3-3 5-2l23 2 21 3 11 1 18 2a2 2 0 0 1 2 2v64h-105Zm304 0 7-10 19-19 12-13 3-2 15 1c2 0 3 1 2 4l-2 22-2 13v4h-54Zm-55 0-14-55 102 10v2l-11 12-25 27-2 4h-50Zm-1506 0 1-2 9-1 8-2 34-15 26-11 44-17 65-25c8-3 16-9 23-14s7-5 14-1a141 141 0 0 0 32 12c5-1 7 2 9 5 10 14 19 29 27 44l10 20c1 2 3 3 6 4 2 0 3 0 5-2 1-1 0-3-1-4l-18-33-7-16-11-18c-2-4-2-4 2-6l11-6 43-24 27-15 50-26 42-22 48-25c10-5 19-11 26-19l19-18s1-2 3-1a3 3 0 0 1-1 6l-6 4c-9 5-8 4-4 12l29 53c2 5 5 6 10 3l13-9 9-7c4-2 5-6 2-10-5-7-8-15-12-23l-17-30c-2-4-3-4-6-2l-9 4c-1 0-2 2-3 0-2-3-2-4-1-6l1-1 23-23c3-3 3-3 6 0l34 44 11 14 1 1a2 2 0 0 0 3 1v-3l-11-14c-2-3-3-3 1-4l15-8 21-9 53-25c4-2 4-2 6 1l20 41c2 3 2 3-2 5l-20 12c-12 8-24 14-36 20l-20 12c-4 2-4 2-7-1l-5-7-1-3a2 2 0 0 0-3 2l4 6 2 4c2 3 2 4-2 6l-38 24c-11 7-22 14-32 23l-33 31-21 19c-8 7-14 15-22 21l-17 16-20 19-12 11-2 4 10 1c3 0 5-2 7-4l17-16 34-33 20-19 22-21 32-28c7-6 14-10 21-14l41-26c1-1 3-1 3 1l5 10-8 5-45 29c-3 2-7 3-9 6l-17 15-27 27-2 3-5 12c-2 5-2 10 1 15l6 8 4 4c3 2 7 2 11 1 3-1 7-1 10 1l1 1c5 1 9 5 11 10l2 16H241Zm1679 0h-60l1-13 1-13 2-12 1-4 24 2c9 2 19 2 28 3h3v37Zm-306 0c-2-20 0-40-1-59v-4c0-1 1-2 3-2l21 2 29 2 17 2 19 1h6c4 0 8 2 12 1 2 0 2 2 3 4l3 15 7 26 3 12h-122Zm-1523 0-5-12-1-1c-6-10-13-19-18-30l-4-8v-2c1-1 2-2 1-3-1-2-1-5-4-6s-4-4-6-7c-2-6-4-13-2-20l3-6 23-32a1019 1019 0 0 1 26-32l6-7 12-11 21-17 16-13 23-18c3-2 5-7 9-9l2-3c3-2 3-2 5 0 6 7 13 12 20 16l22 13 48 27 20 11c1 1 2 2 1 3l-13 28-5 4-1 3a2 2 0 0 0 2 1c2 0 2 1 3 2l12 29 11 28 2 4 5 2h4l2-1c4-4 9-5 14-7l65-27a879 879 0 0 0 22-7l15 10-12 10c-8 5-18 8-27 12l-29 11-29 11-40 16-45 19-32 16c-2 1-3 1-3 3h-90c0-2 1-3 2-3l23-10c10-4 18-10 27-15l16-10 39-22c3-3 4-5 3-9l-2-3-11-18c-3-5-2-7 2-9l2-1 33-19 4-3a1 1 0 0 0 1-2l-2-1-2 1-24 13-16 10c-2 1-4 3-3 4 0 3 0 7 2 10l11 16c3 5 2 6-2 9l-19 12-36 20c-14 10-30 16-46 23l-4 1c-7-2-12 2-17 5l-1 1H91Zm1829-825v28l-16 7c-9 3-19 7-27 12l-26 14-27 15-20 11-24 11-21 11c-11 7-23 13-34 21l-31 18-35 20c-16 11-32 23-50 31l-20 10c-1 1-2 1-2 3l10 14 24 34 30 44 40 57 16 23c2 3 3 3 6 1l26-19 28-19a4286 4286 0 0 1 70-50l14-13c10-8 22-13 33-19 7-4 14-6 22-5 5 0 10 0 14-3v442l-3-2-5-8-39-57-17-25-23-34c-8-9-14-20-21-29-2-3-2-3-5-1l-11 7c-3 2-3 2-1 5l9 12 20 30 37 53 25 36 19 29 12 17 3 3v41l-20-2-11-1-14-1-21-3-22-2-9-1-13-1-16-1-10-2-15-1-14-1-11-1-12-2-17-1-14-1-18-2-18-1-12-1-31-2-25-2-29-4c-10-1-19-3-29-3l-9-1 3-5c6-9 14-17 21-25l21-23 28-28 3-2c2-3 2-4 0-6-1-3-5-3-7-1l-3 2-54 56c-8 9-16 18-22 28l-5 7-19 25-21 35-11 23h-175l1-5 14-39c5-11 9-21 16-30l31-47 26-38 21-30c6-11 15-20 24-29 5-6 10-13 11-21l5-17c1-4 4-8 8-11 7-4 14-9 22-11 4-2 8-4 10-7l24-24c5-4 9-9 12-15 1-2 2-4 5-6 5-4 11-8 18-10l10-3 7-3 19-17 4-2 17-7c8-3 15-7 24-4h2c6-2 12-3 18-7 8-5 16-11 23-19l6-5 14-10c2-2 2-2 1-5l-5-7a95425 95425 0 0 1-106-153l-8-11c-1-2-2-2-4-1l-8 8c-6 4-12 8-17 14l-6 7c-9 9-19 16-29 24-9 7-20 14-28 24l-9 9-7 8c-4 7-8 15-15 21l-5 4-19 17c-11 10-22 19-32 30l-23 23-5 4-13 10-18 16-17 13-23 20-25 23c-5 4-11 8-18 9h-3c-2 0-4 1-5 3l-2 6c1 3 0 5-1 7-3 7-8 11-14 16s-13 8-20 12l-25 14-28 19-19 15c-5 4-9 9-15 12-5 2-9 5-15 5-5 0-9 3-12 7l-4 4-10 8c-7 3-14 5-22 3-10-2-18 2-26 7-4 3-9 5-14 5l-14 1c-8 2-16 0-24-2-7-2-13-5-21-5-5-1-10-2-15 1l-27 16c-3-1-4-5-6-7-1-4-1-4 2-6l20-12 22-12 29-17c7-4 13-7 19-12l36-26 46-35a1806 1806 0 0 1 79-56l57-40 25-19a13480 13480 0 0 0 112-81l30-22a5833 5833 0 0 0 63-45l46-32 38-27 19-14c2-1 3-1 4 1l5 6c2 3 3 3 5 1l11-7c3-2 3-3 1-6l-1-1c-2-3-2-3 1-5l13-9 31-21 37-26 55-34c11-6 21-13 32-18 33-17 67-33 99-51l39-19c14-8 29-14 45-17ZM0 915v-7l2-17v-1l1-20c1-5 0-11 2-16v-4c-1-5 1-10 1-15 0-2 2-2 3-3l14-5 36-11 26-11c2 0 4-2 6-1s4-1 6-2l35-31c3-3 3-3 6 0l22 28 19 22 11 13c3 4 3 4 0 7l-6 7-18 15-29 23c-11 9-22 18-33 29l-17 20-26 35-11 16c-3 5-3 11-2 16l3 12c2 2 3 5 1 7l1 4 22 42 5 13H0V915Zm1812 164v1-1Zm-1155-19 4-2 11-6c5-3 5-3 2-9l-1-2c-1-2-2-2-4-1l-11 6c-2 2-6 2-6 5s2 5 3 8h1l1 1Zm-332-51c-2 0-2-1-3-2l-10-23-14-36v-5c6-8 9-17 13-26 2-3 2-4 6-2l48 24c4 2 4 3 2 6a45823 45823 0 0 1-38 62c-1 2-2 2-4 2Zm11-4c1-5 4-8 6-11l14-24c1-2 2-2 4-1 3 5 7 8 11 12l3 4c2 3 2 4-1 5l-22 9-9 4-6 2Zm254-519c2-1 3 0 4 3l10 29 8 17 10 18 1 3v3c6 4 8 11 11 17l27 50c5 9 9 19 15 28l19 38 22 43 18 42a622 622 0 0 0 31 65c1 2 1 4-1 5l-8 9c-11 10-24 17-37 23l-34 18-46 24-48 25-40 22-31 17-11 6-8 1c-17-3-33-11-48-20l-13-9c-2 0-3-2-4-3l-16-37-13-31-16-36c-3-6-4-13-5-20l-4-25-3-15v-2c2-6 1-12-2-17v-3a127 127 0 0 0-2-20c1-9-1-19-2-28v-5l22-38 11-20a339 339 0 0 1 28-38l19-25 23-31c8-12 18-23 26-36l11-14c3-5 9-7 14-10l38-16c6-2 13-6 20-7h4ZM382 986a277 277 0 0 1-21-21v-3l10-17c1-2 2-2 4-1l9 5 36 17 2 2c2 1 2 2 0 2l-8 3-30 13h-2Zm1049-14-2 1-2 2 2 1 2-1v-2c2-1 3-1 3-3l-2-2-1 4ZM300 891l20-6c9-2 18-6 27-10l34-13a17206 17206 0 0 0 26 54l12 28 5 11-15-8a218 218 0 0 0-27-13l-62-31c-7-3-13-8-20-12Zm538 7c0 2-2 3-3 4l-14 10-6 4c-2 2-4 2-6-1l-1-1-17-33c-2-4-2-4 2-6l21-12c3-2 3-2 5 1l18 33 1 1Zm-538-7Zm1258-10-6 4c-1 1-3 3-5 3l1 2c1 1 3 1 3-1l4-3c2-2 3-2 3-5ZM0 245l8-5 18-10c2-1 4-2 6 0 2 1 4-1 5 2l3 5c4 10 10 19 15 29l2 2c-2 4 1 8 3 11l8 14 25 47c1 1 1 2 3 2l4 4 3 6c3 7 8 14 12 20 2 2 3 4 0 6v3c1 2 2 5 5 6s4 4 5 7c1 1 0 1-1 2a2 2 0 0 0-1 3c3 5 4 11 10 14 2 1 2 3 2 5 1 7 4 14 4 21 0 3 3 5 4 9l3 8 5 10c6 12 14 23 21 34l5 5c1 1 2 2 3 1 2-1 4 1 6 2 9 5 17 13 25 21l5 4 5 5c2 4 4 5 8 4l8-5 9-9c3-3 3-3 6 0l10 17c2 3 3 6 7 6 2 0 2 3 3 4l13 24c3 6 5 13 9 19l1 1c5 3 6 8 8 12 1 2 4 4 2 7-1 2-4 2-6 3a28006 28006 0 0 1-47 19c-1 1-2 2-1 3s2 3 4 1l16-8c4-2 9-3 13-6l10-2 11-5c3-1 3-1 5 2l10 21 19 39c1 2 2 5 5 5 2 0 2 1 3 2l15 25 1 7 3 26 3 27c3 6 1 12 3 17v6l2 21 3 18 3 14c2 6 2 4-3 7l-28 11-11 4c-13 5-26 8-40 12-2 1-5 0-7-1l-45-25-25-14-10-7v-4a91 91 0 0 0-2-65l-12-33c-2-4-2-4 2-5 5-2 11-3 16-6l2-1-2-2-4 1-13 4c-4 1-4 1-6-2l-8-19-10-23-13-28-12-27-12-28-13-28-15-33a6725 6725 0 0 0-65-142l-13-28-13-30-10-24-8-19v-53Zm815 612-1 2-10 7c-2 1-4 3-7 3s-5 2-8 4l-3-1-6-12v-4l26-13c1-1 2 0 2 1l7 12v1Zm61-15c-2-1-3 0-5 1l-12 5c-4 2-4 2-6-1l-9-12-19-24c-2-3-2-4 2-6l4-3 2-2c2-6 7-6 11-9h1c5 2 7-3 10-4l2-2c0-2 2-4 4-5l24-13 33-17c4-1 7-4 10-6 5-6 12-8 19-11l28-14 38-20 14-7c4-1 4-1 6 2l19 30 14 21 17 27c3 4 3 4-1 7l-22 16-40 30-36 26c-2 2-3 1-4 0l-7-14-27-54c-1-3-4-5-4-8a1 1 0 0 0-2-1c-1 1-2 1-1 3l11 23c3 4 3 4-1 6l-34 17-36 18-3 1ZM193 739l3 8 12 33c3 8 4 15 4 23 0 10-1 20-4 29-1 2-2 2-4 0l-11-13-14-16-18-21-15-20-1-2 14-3h1c2 0 3-1 2-2l-2-1c-3-1-6 0-8 1h-9c-2 1-4-1-5-3l-10-13-24-30-21-27a6050 6050 0 0 0-42-53l-15-18-1-1c-3-4-4-5 1-9l34-28 29-23 3-4c1-5 6-7 9-10 1-1 2 0 2 1l3 6a28250 28250 0 0 1 65 146l19 42v4c-3 5-7 9-12 12l-5 3a1 1 0 0 0 0 2 2 2 0 0 0 2 1c5-3 11-5 15-11l3-3Zm638-362 2 1 8 15 20 35 12 23c3 3 4 7 6 10l9 12 19 33 21 36 25 42 20 35 8 15 18 33c2 6 6 11 9 16 2 4 1 5-3 7-14 6-27 14-40 21l-18 9-29 16-29 17a89340 89340 0 0 1-78 48l-11 11-21 20c-2 2-3 2-5 0l-1-3a623 623 0 0 1-41-91c-13-28-28-55-42-82-7-16-16-31-24-47l-5-9-2-5v-1l-1-1-3-4-21-40-13-25-12-21v-3c2-3 1-4 0-6l-1-3c0-2 0-3 3-3l7-2c9-2 17-6 26-9 10-3 18-10 27-15l6-2 2-1 32-16 21-12 36-20 21-11 34-19 7-4h1Zm753 451v-5c-2-1-3-3-6-3l6 8ZM0 691l27 37 24 34 21 28 5 7-77 25V691Zm0-80c2 2 3 1 5 0 3-2 3-2 6 1l15 18 15 18 17 22 27 34a10466 10466 0 0 1 40 51l1 2v1c-3 4-4 9-8 12l-21 17-14 8c-2 1-2 1-4-1l-39-55-35-47-5-7v-74Zm1417-159-2 1-15 14-18 16-4 3c-2 1-4 4-6 3-2-3-5-6-3-10 0-3-1-6-4-6-3-1-5-2-6-4l-20-20-5-4-2-5 29-12 7-3 35-17 3-1c8 2 14-3 21-5 5-1 10-5 15-7 2-1 4-3 6-1l2 1c4 0 4 0 5 4 2 3 1 7 3 10v3a457 457 0 0 1-9 8c-4 0-5 3-7 5l-14 14-3 3a1 1 0 0 0 0 2l2-1a536 536 0 0 0 17-17c2-2 4-4 6-4l3-1 6-7c2-2 3-5 2-8l-2-8c-2-4-1-7 4-8l30-8 6-3c4-2 7 0 9 3l22 43 9 16c3 5 2 10-3 13l-11 7-8 6-32 23-20 14-42 29-35 25-24 18-27 19-26 20-33 24-21 15-23 17-14 9-12 9-19 14-20 14-28 19-18 13-27 19-5 3c-1 2-3 1-4 0l-1-2-19-30-1-1c-8-6-11-16-16-24l-13-20c-2-5-2-6 2-9l11-8 32-24 21-14c1-2 2-1 3 1l13 18 5 7c2 2 4 2 5 1 2-1 3-4 2-6l-2-1c-2 1-3-1-5-3l-17-23v-5l18-17 15-12 7-6c1-1 2-1 3 1l11 13 5 6c3 2 6 2 9 1l39-23 15-9 2-2-1-1c-4 2-5-1-7-3-5-9-11-17-18-24-2-1-4-3-1-6-2-5 2-7 5-10l21-22 18-19c2-4 3-3 6 0 9 8 17 17 24 28l12 16 7 8c2 2 1 3 0 4l-6 4-1 1-1 3a2 2 0 0 0 3 1c4-2 6-6 9-9v-3c-1-2-1-4 1-5 5-5 10-11 16-15l2-2 36-37 9-3 2 1 3 5c1 3 4 3 6 1l5-4c4-2 7-5 9-9l6-6 18-18c1-1 3-2 3-4ZM344 609c2 1 3 0 5-1l13-3h6c3 0 3-3 6-3l15-4 4 1c3 3 6 1 9 0 4-2 5-2 7 1l11 15 7 10c1 2 2 3 0 4l-16 23c-12 17-22 35-32 53l-7 12c-1 2-2 2-3 0l-21-32c-5-7-7-14-11-21l-13-27-10-19c-1-1 0-2 1-3l27-6h2Zm1486 78c-2-1-3 0-5 1l-2 4c3-1 5-2 7-5Zm-759-265c4-2 4-2 2-6l-4-9-4-8c-4-5-5-10-8-15v-2c2-5-1-9-2-14l-3-12c0-1 0-3-2-3s-2-2-3-3l-12-37-8-24v-2c1-6-2-12-3-17v-6c1-2 1-4-1-6l1-4 18-27c2-2 3-2 6 0l10 8 35 23 34 23 51 34 2 1c4 3 4 3 2 6a12275 12275 0 0 1-25 40c-6 4-7 11-11 16-3 5-6 10-7 16l-2 4-12 27-1 3c0 4-1 6-3 9l-14 22c-2 3-2 3-5 2-3-2-6-3-7-7l-2-1-5-4c-3-4-7-7-9-12l-1-2c-2 1-1 2 0 4a1505 1505 0 0 0 7 18c1 4 1 4-3 6a648 648 0 0 0-28 11c-3 2-5 2-8 0l-25-15-14-7c-5-1-10-4-14-7-2-2-3-3-1-6l2-6a2 2 0 0 0-1-3 2 2 0 0 0-2 2c0 3-2 5-4 7l-1 1c-2 4-2 5 2 6s7 2 10 5c2 2 6 3 9 4 6 2 12 6 17 10l20 12h7l35-12h5l12 4 3 2 75 76c3 3 3 4-1 6l-26 19-14 12c-1 1-2 2-1 4l-2 4-21 20-10 8-22 19-17 13c-6 6-13 9-20 14l-23 16c-2 2-3 2-5 0l-2-2-16-31-28-52-20-32-27-46-21-35-5-10-9-15c-1-2-1-3 1-5l13-8 2-1c4 0 5-3 7-5 1-2 1-3-1-3s-5 0-7 2c-5 6-11 9-16 13-2 1-3 0-4-1l-14-21a1920 1920 0 0 1-32-59 869 869 0 0 0 24-41l23-39c6-11 9-23 13-34a525 525 0 0 1 37-85l8-16c2-4 2-4 6-1l21 17 13 10c3 2 6 5 10 5 3 0 5 4 7 5l31 24c4 3 4 4 1 9l-19 33v5c3 16 8 30 14 45 3 9 8 18 10 27l7 34 7 17 4 9c1 3 2 6 5 8 2 2 2 5 3 7l6 12ZM255 648l-2 3c0 1 0 2 2 2a2 2 0 0 0 2-2l-2-3Zm1594-9c0-3 1-5 3-6 0-1 1-3-1-3-1-1-1 0-2 1 0 2-2 4-4 5l-1 1c2 0 3 0 5 2ZM160 389l-2 2-4 2a2 2 0 0 0-2 2h-3c-2-4-4-2-6 0-10 6-7 5-11-3l-3-6-3-2c-3-1-7-7-7-9l1-1c3-2 1-4 0-6l-2-4c-1-1-1-2-3-1s-3-1-4-3l-14-26-19-37c-4-8-9-17-15-25l-2-4a31991 31991 0 0 1-21-41c-1-3 0-4 3-6l32-18c3-2 8-2 12-3l4 2 45 22 27 10c17 5 35 10 52 18l7 3c3 1 6 3 8 6l21 25 28 29 15 10c3 2 5 2 8-1l8-8c1-1 2-2 4 0l16 11 36 26 32 23c2 1 2 3 1 4l-36 50c-4 5-7 10-12 14-1 1-3 3-2 4 1 2 3 0 4-1 4-3 7-8 10-12 11-13 20-27 30-41l9-12c2-3 3-3 6-2a891 891 0 0 1 76 40l28 20 6 4c2 1 3 3 3 6 0 6 1 13-1 20v3l-2 19-1 13c0 3-1 6-3 8l-10 13-21 30c-5 7-9 14-15 20-12 14-23 30-34 45-3 3-3 3-5 0l-15-21-2-6c1-2-2-4-5-5l-14 2-48 9c-1 0-2 0-2 2 1 2 0 3-2 4l-28 7c-2 0-3-1-4-3l-5-8a672 672 0 0 1-29-55c-8-9-15-19-19-29v-4l16-17h4c1 1 2 0 3-1 0-2 2-3 4-4a575 575 0 0 0 22-15c2-3 6-4 8-6l22-14 2-2c-1-1-2 0-3 1l-31 19-18 11-2 2c-4 2-6 1-10-2-8-6-12-14-18-21-3-3-5-5-9-5-1 0-3 0-4-2-6-5-10-13-15-19-1-2 0-3 2-4l7-5 2-1c4-5 5-8 1-13l-8-13-12-15-11-14-1-3c2-4-1-6-3-9-3-2-8-3-12-1l-2 3-2 4-21 15c-1 1-3 2-5 0a2 2 0 0 0-3 1v2l1 3c2 1 3-1 5-2l24-16 4-2 7 4 1 2 11 18c1 1 1 2 3 2 3-1 4 2 5 4 2 1 4 3 2 6-1 1 0 5 2 5 3 0 4 2 5 5 5 7 5 7-3 13l-8 6c-2 1-3 3-2 5l2 3c2 5 2 5-2 7l-6 3c-4 2-7 3-11-1h-2c-2 1-2 2-1 3 2 2 4 3 7 3 3 1 7 0 10-2l3-2c6-3 6-3 11 3l4 4c3 1 5 4 7 6 2 3 2 3 5 1s4-2 6 1l18 23c2 3 2 4-1 7l-20 19-2 2c-7 1-10 6-14 10-1 2-3 3-5 3h-5l-6-6-19-17c-3-3-6-4-9-4-5-1-9-4-11-8l-17-27c-5-9-11-17-14-26l-8-30v-1c0-2-3-3-1-5l5-4c4-3 9-5 12-9a2 2 0 0 0 2-2c2 0 3 0 4-2a2 2 0 0 0 2-2Zm991 202c2-2 4-3 3-6 0-2 3-4 5-5l22-18 11-11h6c6 5 11 10 16 17l7 11c1 3 1 3-1 5l-30 16-17 10c-3 1-4 1-6-1l-16-18ZM0 381l5-2 9-4 3-3 2-2c6-3 8-1 11 5l8 17 12 29 21 44 13 30 16 34v1l-1 3-8 6-2 1c-4-1-7 1-9 4l-22 18-22 17-18 15c-3 3-4 3-7-1L0 579V381Zm1264 83v1l-3 3-12 14-16 18-28 31-10 9c-3 3-4 3-7 0l-41-38c-4-5-9-10-15-14-5-4-4-5-1-10l4-7c2-3 5-3 7-1l21 14c2 2 5 2 7 0l9-10 2-2c4-2 5-5 7-8 4-8 10-15 15-23 2-4 2-4 6-2 13 6 26 12 41 16 5 1 9 5 13 7l1 2Zm37 72c-2 0-2-1-3-2l-14-16-3-4-21-21c-1-1-3-2-1-4l17-19c7-8 16-13 26-17l18-8c8-4 8-4 14 2l15 17 9 10a2 2 0 0 1 0 3l-7 8-20 23c-4 5-9 10-15 14l-12 12-3 2ZM733 401l-2-7-12-26-4-8c-2-9-6-16-9-24l-12-25c0-2-2-4-3-5-6-13-12-25-15-39-1-8-4-15-7-22l-8-29c0-2 0-3 2-3l28-8c5-1 10-1 15 1 3 1 5 4 6 7 4 14 12 28 17 42l9 17 20 36c9 19 19 38 31 57l10 17c1 2 1 3-1 5a3741 3741 0 0 1-48 27c-4 2-4 2-6 0l-2-1h-1l-1 1c0 2 2 3 1 5l-4 3c-9 5-19 11-29 15-14 7-29 15-44 21l-18 7-23 9c-4 1-4 1-5-3l-8-26-2-4-1-1-2 1 1 4 8 28c1 3 1 4-2 4-4 0-8 2-12 1l-4 2c-5 4-11 2-16 4l-2-2-8-37c0-1 0-2-2-3l-1 2 7 34v4c0 4 0 4-3 5a3753 3753 0 0 1-48 20l-2 1v-6c2-7 2-15 3-23l1-24c0-3-2-5-1-8 1-7 0-13 2-20v-1c-1-8 1-15 1-23l1-14 1-11 2-12c-1-2 1-3 2-3 8 0 15-1 22 1h10l14 1h6l2-2a2 2 0 0 0-2-2c-3 0-6-1-9 1h-4l-18-1-18-1c-4 0-5-1-4-5l5-30 4-17c1-2 2-3 4-3l4 1h14c3 1 6-1 9-3 9-5 14-13 19-21l24-29a103986 103986 0 0 1 22-29c0-6 5-9 8-13l2-2c3 1 4 0 5-1 2-2 2-2 3 0l6 19 2 4 2 7c3 17 8 33 15 49v5c-1 1-1 3 1 3 2-1 2 1 3 2l24 53 4 10c5 14 12 27 19 40a1 1 0 0 0 2 1Zm392 78-2-2-12-11a3 3 0 0 1-1-3l16-26c2-3 2-3 6-1l37 26 6 5c2 1 3 2 1 4l-8 9c-1 2-3 2-5 1l-20-14c-4-3-5-3-9 0l-7 10-2 2Zm131-121-1 1-6 13-28 57-1 2c-2 3-2 3-5 2l-8-3c-4-1-5 0-7 3l-16 24c-3 4-3 4-7 1l-42-31c-2-1-2-3-1-4l13-24 1-2 18-35 19-36 1-3c2-2 3-2 5-1l29 16 29 14 6 4 1 2Zm7-5 20 11 23 13c3 2 3 2 2 5-5 12-10 25-17 36l-8 17v4l4 5c1 1 1 3-1 4l-13 10h-7l-24-13-13-6-3-2c-4-2-4-3-2-7l28-57 8-16 3-4ZM340 453h-1l-1 1h1l1-1Zm1081-63-3 2c-4 2-7 2-10 5l-3 2-48 18-16 8-31 16-9 5c-2 1-4 1-6-1l-7-5c-2-2-2-4-1-5 3-6 5-12 9-17l13-28 3-8c2-3 5-7 10-6l12 3 9 1a106 106 0 0 1 27 3c5-2 11 0 16-2h2l15 1 3 2c1 4 5 4 8 4l7 2ZM313 0l1 11c0 8 1 15 3 23l2 16c0 3-1 3-3 4l-22 5-27 6c-5 1-5 1-6-3l-2-9c-2 3 0 5 0 8 0 4-1 7-5 8l-9 2c-1 0-2 0-2 2 1 2 2 2 4 2l26-7c14-4 28-8 42-10l32-8c8-1 16-1 23 2l5 3 19 19 10 11c2 1 3 3 3 5 1 8 0 15 2 23l-1 11v21l2 17 2 3 15 21a716 716 0 0 1 10 19l2 15v3c-4 2-4 7-8 9l-2 2-1 1 1 1h1c4-2 7 1 10 4l3 3 2 1c4-2 7 2 9 4l46 32 3 2c3 0 6 2 8 4l25 17c2 2 2 4 2 6-5 13-7 26-9 39l-2 20-3 23-1 11-1 22-1 14c0 2-1 3-3 1l-21-14-31-20-29-15-28-13c-13-6-24-15-36-22-10-6-19-14-29-21l-2-2a2 2 0 0 1 0-3l4-4 6-8v-2h-2l-2 2c-2 4-6 6-9 9-2 2-2 2-5 0l-5-5-11-7-3-3c-1-3-2-3-4-1l-11 10c-3 3-3 3-6 1-13-7-23-18-32-28l-28-34c-2-2-2-3 1-4 5-2 7-6 11-8 9-7 16-16 23-24l16-18 10-11c2-2 2-6 0-9l-8-8a82 82 0 0 1-17-22c-1-1-2-3-4-2v4c3 5 6 11 11 15l14 15c2 3 2 4 0 6-13 16-26 31-41 45l-13 11c-5 3-9 5-15 2-13-6-26-11-40-15l-30-10-20-8-39-19c-3-1-4-3-2-5l13-15 16-20c6-7 11-14 18-20l15-12c2-2 4-5 7-6 2-2 3-1 5 0l17 20 8 9a2 2 0 0 0 3 0v-3c-4-2-6-6-9-9-4-2-6-6-9-9l-6-9c-3-3-3-5 0-7l26-19 8-4c-1-2-2-1-3 0a470 470 0 0 0-65 46c-2-2-2-5-6-5l-1-3-5-27-2-22-1-35c-1-6 0-11-2-17v-2c1-8 0-17-1-25h196Zm1356 214 2 2 8 13a9134 9134 0 0 1 53 89c1 2 1 3-1 4l-36 20-22 14-43 26-28 20-22 15-25 17-2 2c-2 1-2 0-3-1l-5-9-18-34-10-17c-1-3-1-4 1-7l2-2c0-5 4-7 7-10l9-9 19-15 9-9 13-12 7-5 8-9 42-42 19-22 14-17 2-2ZM1384 0l2 6 11 39 3 12c1 1 1 2-1 2a2 2 0 0 0-1 2c0 2 1 2 2 2 2 0 3 1 4 3l16 46 9 36 15 52 21 71 14 45c3 11 7 21 12 31l7 17c2 3 1 5-2 7-19 6-39 9-58 14-3 1-4 1-4-3s0-4-4-4l-5 1c-4 1-8-1-12-1-2 0-2-1-2-3v-5l2-25c1-6 2-12 1-18v-2l-1-1-2 1v3l-2 19-1 14-1 13c0 1-1 3-3 3-6 1-11 2-17 0h-2c-15 0-28-2-42-4-6-1-13-3-19-2l-5-1c-5 0-9-1-13 1-3 2-6 2-8 0l-28-22c-3-3-3-3-1-7a1251 1251 0 0 0 33-59c3-4 3-4 8-2l4-7 7-14c2-3 2-3 5-2l14 7 3 1 2-1c1-1 0-2-1-3l-7-3-8-4c-2-1-5-1-4-5v-1c-4-2-2-5-1-8l16-39c1-3 2-3 5-3 3 1 4 0 4-3 2-7 1-13 1-20 0-1 0-2-2-3-5 0-5 0-6-5l-2-14c-3 1-2 2-2 3 2 10 2 20 2 31 0 6-3 12-5 19l-9 18-4 12c-6 15-12 30-21 43l-14 23-10 20-15 25c-1 2-2 3-5 2l-7-2c-10-6-21-10-31-15l-25-13-42-27-51-33a1098 1098 0 0 1-53-37c-5-5-5-5-1-11l28-38 11-15c3-4 3-8 0-13l-22-33c-4-6-6-13-2-20l2-2 18-22c2-4 5-4 8-1 4 5 8 9 13 12l4 2c4 0 6-2 8-4-3-2-3-2-5-1-3 2-4 2-7-1l-8-9c-8-7-7-4-4-14v-7c-2-3-2-3 1-5l26-18 33-23h124v1c-1 1-3 2-2 4 1 3 0 4-1 6l-10 11-1 2 3-1 4-4 14-12c3-3 4-4 3-7h99ZM742 0l18 11 44 29 39 25 47 30 9 8 22 20 19 18c4 4 5 7 2 12l-10 20c-6 10-9 22-15 32s-9 22-13 33c-5 11-7 23-12 34l-5 9c-6 14-14 26-22 39-8 15-18 30-27 44l-6 6c-8 2-16 5-23 10l-3 1a3 3 0 0 1-4-1l-5-8-11-20-10-17v-7l14-20 10-16 14-17c3-2 5-7 4-11v-2l-8-9 2 7c4 5 3 9-1 14l-23 32-12 19c-3 3-4 3-6-1l-7-13-11-22-8-16-8-14-4-8-16-37c-1-1-1-3 1-5l9-9 12-12v-2a1 1 0 0 0-1 0l-17 16-6 4-2-1c-6-4-12-4-19-3-9 0-19 4-28 6-2 1-4 2-6 1-2-3-2-6-1-9l3-10c2-7 3-15 3-23-1-13 1-25 4-37v-6c-1-3-1-4 2-4h2l34-1 18-5 2-1h-4l-11 2c-6 2-13 2-19 3h-18c-4 0-4-1-4-4l1-10a212 212 0 0 1 13-53c9-17 15-34 22-51h36ZM0 307l11 27 11 26c2 3 1 4-2 6H9l-9 3v-62Zm1448-136c-1-3 0-4 2-5l18-7 29-11 28-11 28-11 30-12 10-4c4-2 7-1 9 3l5 11 16 29 19 32 12 20c2 4 2 5-1 8l-4 6c-2 1-3 2-2 4s0 3-1 4l-2 3-48 47-49 48-25 23-9 9c-3 2-4 2-5-1l-14-31-6-20-11-36-15-50-9-31-5-15v-2Zm472 63-6 1c-15 4-29 9-43 16l-42 20-29 16c-4 2-4 2-7-2a17230 17230 0 0 1-32-46 5 5 0 0 0-8 2l1 3 9 11 13 17c1 2 3 3 1 5-2 1-1 2 0 3l7 11c2 3 2 3-1 5l-43 21c-3 2-3 2-6-2l-10-18-22-37-20-34-9-13c-1-2-1-3 1-5l6-6 24-21 30-27 16-14 10-11 13-12 3-2c2-1 3-1 4 1l24 26c12 14 26 26 39 40l19 20c5 4 8 4 13 1l25-17c6-4 13-8 20-10v58ZM699 0l-8 23c0 1 0 2-2 2-2-1-2 1-3 2l-11 30c-2 5-5 6-10 5l-19-6h-3c0 2 1 1 2 2l6 1c4 2 9 2 13 6l5 1-1 2c-3 8-3 17-5 25-1 3-1 6 2 7 2 1 3 3 1 4v1c-8 9-10 19-12 30l-3 33c0 7-1 15-3 22 0 3-2 5-4 8a52 52 0 0 0-9 18c-1 4-4 6-8 7h-6l-22-11c-3-1-5-4-7-7-5-8-13-13-20-19l-23-18-3-2c-2-1-3-2-4 0-1 1 0 2 1 3l18 14 24 18 5 7 6 4 24 13c3 2 3 2 1 5l-25 37c-3 4-6 9-10 12l-10 13c-2 3-5 5-8 6l-6 4-6 1-2-2c-1-3-2-4-6-3l-4-2-35-19c-15-9-30-19-44-30-7-4-12-10-19-15-2-2-2-5-2-8l-2-12v-4l2-9c1-4 1-9-3-12l-16-15c-4-2-6-6-7-11v-1c-4-8-4-18-3-27l2-16 2-14-1-6-17-29-5-7c-5-4-3-8 1-11l17-12 31-23 22-15h232ZM426 236l-2 1-20 16c-3 2-6 3-8 6l-1 2h3l8-6 19-16c1-1 2-1 1-3Zm383 16-7-10h-2v2c2 3 5 6 9 8ZM0 54l1 3 10 24 13 28 14 26 3 5c1 2 2 5 5 4 2 0 2 1 3 2a2332 2332 0 0 0 3 8c-3 2 0 4 1 6l11 15 9 13 1 5c0 2 2 4 1 5l-4 3-20 11-9 5c-2 2-4 3-7 2s-5 1-6 4l-3 3a5886 5886 0 0 1-26 14V54Zm426 182Zm658-84-1 5-19 25-19 30-2 2c-3 3-3 3-7 0l-21-16-17-13c-3-2-3-3-1-6a4785 4785 0 0 1 39-49l19-21c2-2 3-2 4 0l7 11a420 420 0 0 0 18 32Zm585 62Zm-54-112c2 0 5 1 6 4l9 24c6 14 11 27 19 39l16 24c1 2 2 4 0 6l-1 1c-4 7-5 7-9 0l-14-24-15-26-21-39c-1-4 0-6 3-7l5-2h2ZM1920 0v172l-5 3-43 25c-4 2-4 2-7-1l-7-7-26-26-31-33-19-19c-3-3-3-3 0-5l23-22 14-13c2-2 2-2 5 1l17 21 4 5c1 1 4 1 5 3v-3l-24-28v-5l7-6 3-3 37-36 15-12 17-11h15Zm-86 0 2 10 4 22 2 7c0 3 0 6-3 7-8 6-14 14-21 21-2 1-3 2-4 1h-2l-5 4c-2 2-4 3-2 6l-1 3-12 8c-1 2-2 1-4 0l-10-20-5-9-1 1 4 11 10 19c2 4 2 4-1 7l-17 15-1 1-18 17c-14 12-27 25-42 36-1 1-2 2-3 1-2-2-4-1-4 1 0 4-2 5-5 7l-17 15c-7 7-7 5-11-1-9-11-16-24-23-36l-5-12-12-31-4-12-5-10-5-13c-1-1-2-3-1-5 2-1 3-4 6-4l16-5 20-5c2 0 4 0 5-3l-3 1-53 12-16 4c-2 0-3 1-4-1-2-2-4-1-6-1-1 1-3 1-3 4l-3 2-23 5-41 9c-4 1-8 2-13 1-1-1-4 0-6 1l-17 4-3 1c-5 4-11 4-17 5l-9 3h-10c-2 1-2-1-3-2l-8-24-9-25c-2-5-2-6 4-7l41-12 21-6c3-1 4-3 6-5l1-5-4-14c-1-2 0-3 1-4h352ZM0 0h108a219 219 0 0 0 2 17c-1 5 0 10 1 15l3 25c2 9 2 18 1 27l2 13 1 12 2 18 4 9c3 4 2 5-1 9l-14 17-14 17-9 11a2 2 0 0 1-3 0l-2-2-16-23c-1-2-2-4 0-7v-3l-5-7-4-2c-2 1-3 0-4-1a1905 1905 0 0 0-21-41L10 48 0 19V0Zm742 183c2 0 3-1 3-2v-1l-3 2v1Zm9-7a1 1 0 0 0-1 0l-1 1a1 1 0 0 0 1 1l1-2ZM1024 0l-6 5c-2 2-4 3-7 1l-3 1a1185 1185 0 0 1 25 19l32 23 10 7c3 1 3 2 1 5l-14 22c-1 2-3 5-1 7l1 3-4 2-26 35-28 35-6 7-1 1c-2-2-5 1-8-1l-13-10s-1-2-2-1c-5 2-7-3-10-5a542 542 0 0 1-49-42c-7-8-17-15-26-21l-63-41-26-18-2-1c-4-6-11-9-17-13l-14-8c-2-2-4-4-7-4l-2-1-11-7h277ZM779 152a2 2 0 0 0-3-2l-2 2-11 11-8 7v2h2l6-6c5-3 10-7 14-12l2-2Zm716-56c8 3 15-2 23-4l43-11 39-11c7-2 7-2 9 5l6 14c2 4 0 8-5 10-2 1-5 3-8 1l-4 1-48 19-28 10-51 19-22 8c-4 2-4 2-5-2l-9-35c-1-4-1-6 4-7l25-7c2 0 5 0 5-2 1-2 2-2 3-2 7-2 15-3 22-6h1Zm-157 55v-4l-1-5c-1 3-1 3 1 9Zm-11-23h-1v1l1-1Zm-1-2-3-5c-2-3-2-3 0-6s2-3 0-5l-2-2c-1-1-1-2 1-4l1-1 25-19 4-3 21-9c1-1 3-1 3-4l-9 3c-7 1-14 4-20 8l-24 19c-2 2-4 5-8 3-4 2-5-1-6-3-7-10-14-20-24-28a95 95 0 0 1-12-10h-1c0 2 2 3 3 4l22 22c2 1 2 3 2 5l-3 5c-1 2 0 3 1 3 4-2 5 1 7 3 5 8 11 15 18 22 1 1 1 2 4 2Zm534-11-2-5-6-4c2 4 5 6 8 9Zm-798-22Zm0 0Zm699-77 3 22c3 9 6 17 8 19l-11-41ZM1087 0l-9 14c-2 5-2 10 1 15l5 6 1 4-5 14c-3 0-5-2-6-3l-24-17-29-20c-2-2-2-3 0-5l4-4 5-4h57ZM459 0l-7 4-11 9-9 8c-2 2-5 3-7 3-9 3-16 9-23 13l-14 10c-2 2-5 2-8 1l-13-5c-6-2-13-1-20 0l-14 2c-2 1-2 0-3-1l-1-14-2-3c-3-1-3-3-3-5l-4-22h139Zm1016 0 5 13c3 8 0 10-7 12l-43 13-17 5c-3 1-4 0-5-3l-11-40h78Zm416 0-10 8-23 19-8 6c-2 2-3 2-4-1a1264 1264 0 0 1-7-32h52Zm-749 0-41 26-4 3c-2 3-6 2-9 3l-2-1c-6-5-7-12-4-17l10-14h50Z"/></svg>